<svg version="1.2" xmlns="http://www.w3.org/2000/svg" viewBox="0 0 1218 366" width="1218" height="366"><defs><clipPath clipPathUnits="userSpaceOnUse" id="cp1"><path d="m1191-767v1684h-1191v-1684z"/></clipPath></defs><style>.a{fill:#2c2e35}.b{fill:#ffa54d}.c{fill:#ffc734}.d{fill:#ff2e4b}.e{fill:none;stroke:#2c2e35;stroke-miterlimit:22.92558479309082;stroke-width:1.1}.f{fill:none;stroke:#2c2e35;stroke-miterlimit:22.92558479309082;stroke-width:.4}.g{fill:none;stroke:#2c2e35;stroke-miterlimit:22.92558479309082;stroke-width:1.4}.h{fill:#fff;stroke:#2c2e35;stroke-miterlimit:22.92558479309082;stroke-width:1.1}.i{fill:#fff}</style><g clip-path="url(#cp1)"><path fill-rule="evenodd" class="a" d="m247.2-117l2.3-0.7c1.7-0.6 3.4-1.4 3.4-3.8l0.2-12.8 0.1-22.8c0-2.7-1.8-3.3-3.5-3.8l-2.4-0.7c0-0.8 0.1-1.1 0.3-1.9l38 0.1v10.4c-0.7 0.2-1.3 0.3-2 0.3-0.9-4.2-3.6-5.8-6.3-6l-12.9-0.6v16.4l4.5 0.1c10.5 0 20.8 1.9 20.7 13.5 0 11.7-10.3 14.5-20.8 14.4l-21.5-0.1c-0.1-0.8-0.1-1.2-0.1-2zm20.7-2.1c7.2 0 9.7-5 9.7-10.2 0-5.1-2.4-9.3-9.6-9.3h-3.6l-0.1 3.8 0.2 15.7zm25.1 2.2l2.5-0.8c1.8-0.5 3.3-1.6 3.3-4l0.2-12.5 0.1-22.2c0-2.2-0.9-3.4-2.9-4l-2.9-1c-0.1-0.7-0.1-1.3 0-1.9l37.8 0.1v9.8c-0.5 0.2-1.3 0.4-2 0.5-0.8-4-3.5-5.6-6.3-5.7l-12.5-0.5v17.9l17.2-0.3v5l-17.3-0.4v2.9l0.2 15.1 9.8-0.3c4.8-0.2 8.1-1.4 11-6.7l2.2 0.9-1.8 10.3-38.5-0.2c-0.1-0.6-0.1-1.7-0.1-2zm42.4-6.2c3.8-1 8.4-2.3 10.2-4.8 2.8-3.8 4.1-20.2 4.1-28.5 0-2.6-0.5-3.2-2.7-3.9l-2.6-0.8c0-0.6 0-1.4 0.2-2l39 0.2c0.1 0.5 0.2 1.3 0.1 1.9l-3.9 1.3c-1.3 0.5-2.1 1.3-2.1 3.3l-0.1 22.7 0.1 12.3c-0.1 2.3 0.8 3.4 2.2 3.8l3.7 1.2c0 0.8-0.1 1.2-0.2 1.9l-22.7-0.1c-0.1-0.7-0.1-1.3-0.1-2.1l3.3-1c1.4-0.4 2.3-1.4 2.3-3.1l0.3-13 0.1-25-11.8-0.1c-0.8 10.6-1.4 29.2-5.2 36.6-1.9 3.6-4.7 6.8-10.3 9.1zm52.3-13.2c0.1-15.2 12.1-27.3 27-27.2 17.2 0 24 9 23.9 23-0.1 14.7-10.6 27.1-26.8 27-16.5-0.1-24.1-8.3-24.1-22.8zm38.4-2.3c0-12.7-4.3-20.1-12.7-20.1-8.6-0.1-13.1 7-13.2 19.9 0 13.5 5.2 20.4 12.5 20.4 9 0 13.3-6.9 13.4-20.2zm14.2 16c3.8-1 8.4-2.3 10.2-4.8 2.8-3.9 4.1-20.2 4.1-28.6 0.1-2.6-0.5-3.1-2.7-3.9l-2.6-0.8c0-0.6 0-1.3 0.2-2l39 0.2c0.1 0.5 0.2 1.3 0.1 2l-3.9 1.3c-1.2 0.4-2.1 1.3-2.1 3.3l-0.1 22.7 0.1 12.3c0 2.3 0.8 3.4 2.2 3.8l3.7 1.1c0 0.9-0.1 1.3-0.2 2l-22.7-0.1c-0.1-0.7-0.1-1.4-0.1-2.1l3.3-1.1c1.4-0.3 2.3-1.4 2.3-3l0.3-13.1 0.1-24.9-11.8-0.1c-0.7 10.6-1.4 29.2-5.2 36.5-1.9 3.7-4.6 6.9-10.3 9.2zm51.6 6.6l3-0.9c1.7-0.5 2.7-1.8 2.8-4.2l0.2-12.1 0.1-23.1c0-2.1-1.4-2.9-3.1-3.4l-2.5-0.8c0-0.6 0-1.3 0.1-2l22 0.1c0.2 0.6 0.1 1.3 0.1 1.9l-3 1c-1.6 0.6-2.4 1.8-2.4 4.2l-0.1 23.6 21.1-19.6v-4.2c0-2.6-1.1-3.1-2.5-3.7l-3.2-1.2c0-0.6 0.1-1.3 0.2-1.9l22.5 0.1c0.2 1 0.2 0.9 0.2 1.9l-3.9 1.3c-1.3 0.5-2.1 1.3-2.2 3.3l-0.1 22.7 0.1 12.3c0 2.3 0.9 3.4 2.2 3.8l3.7 1.2c0 0.8-0.1 1.2-0.2 1.9l-22.6-0.1c-0.1-0.7-0.1-1.3-0.1-2.1l3.3-1c1.3-0.4 2.3-1.4 2.3-3.1l0.2-13 0.1-12.4-21.2 19.7 0.3 5.4c0 1.7 0.8 2.9 3.2 3.7l2.4 0.8c0 0.9 0 1.1-0.3 2l-22.4-0.1c-0.2-0.8-0.3-1.1-0.3-2zm58.7 0.3l2.9-0.9c1.7-0.5 2.8-1.9 2.9-4.2l0.2-12.2 0.1-23c0-2.2-1.5-3-3.1-3.4l-2.6-0.8c0-0.6 0-1.4 0.2-2l53.7 0.2c0.2 1.1 0.1 0.9 0.1 2l-3.9 1.3c-1.2 0.5-2.1 1.3-2.1 3.3l-0.1 22.7 0.1 12.3c0 2.3 0.8 3.4 2.2 3.8l3.7 1.1c0 0.9-0.1 1.3-0.2 2l-22.6-0.1c-0.2-0.7-0.2-1.4-0.2-2.1l3.3-1c1.4-0.4 2.3-1.5 2.4-3.1l0.2-13 0.1-25-20-0.1-0.1 25 0.2 12.8c0 1.6 0.8 2.9 3.2 3.7l2.3 0.8c0 0.8 0 1.1-0.2 2l-22.4-0.1c-0.3-0.8-0.3-1.2-0.3-2zm57.7 0.2l2.5-0.8c1.8-0.5 3.2-1.6 3.3-4.1l0.2-12.4v-22.2c0.1-2.2-0.8-3.4-2.8-4l-3-1c0-0.7 0-1.4 0.1-2l37.8 0.2v9.8c-0.6 0.2-1.3 0.4-2.1 0.5-0.7-4-3.4-5.6-6.2-5.7l-12.5-0.5-0.1 17.9 17.3-0.3-0.1 4.9-17.2-0.4v3l0.2 15.1 9.8-0.3c4.7-0.2 8.1-1.4 11-6.7l2.2 0.9-1.8 10.3-38.5-0.2c-0.2-0.6-0.1-1.7-0.1-2zm96.1 14.6c-0.8-3-1.5-12.2-9.4-12.2l-42.3-0.2c-0.3-0.8-0.3-1.1-0.3-2l2.9-0.9c1.8-0.5 2.8-1.8 2.9-4.2l0.2-12.1 0.1-23.1c0-2.1-1.4-2.9-3.1-3.4l-2.6-0.8c0-0.6 0.1-1.3 0.2-2l22 0.1c0.1 0.6 0.1 1.3 0.1 1.9l-3.1 1c-1.5 0.5-2.3 1.8-2.3 4.2l-0.1 22.2 0.2 15 18.6 0.1 0.2-15.1 0.1-22.4c0-2.6-1-3.1-2.4-3.6l-3.3-1.2c0-0.7 0.2-1.4 0.3-2l22.5 0.1c0.2 1 0.1 0.9 0.1 2l-3.9 1.3c-1.2 0.4-2.1 1.3-2.1 3.2l-0.1 22.7 0.1 15 7.3 0.1-0.1 16.1c-0.7 0.2-2.2 0.4-2.7 0.2zm50.3-11.5c-4 0-9.6-0.5-13.1-4.8l-13.6-16.9v1.9l0.1 12.5c0.1 2.2 0.4 3.1 2 3.8l2.5 1.1c0 0.6 0 1.1-0.2 1.9l-21.6-0.1c-0.1-0.9-0.1-1.1-0.1-1.9l3-1c1.9-0.6 2.7-1.5 2.8-4.1l0.2-12.1 0.1-22.5c0-2.2-0.6-3.4-2.3-3.9l-3.6-1.1c0-0.7 0-1.1 0.2-1.9l21.5 0.1c0.1 0.6 0.2 1.2 0.2 1.9l-2.3 0.9c-2 0.7-2.4 1.5-2.4 4.1l-0.1 15.9 12.9-12.2c0.8-0.8 2.9-2.8 3-4.4 0-1.7-1.4-2.7-3.1-3.4l-1.9-0.9q0-0.9 0.2-1.9l18.5 0.1v1.9l-22 19.3 10.3 12.5c3.9 4.6 8.4 9.1 13.2 12.5l-1 2.7c-0.8 0-2 0-3.4 0zm7.3-22.2c0.1-15.3 12-27.3 26.9-27.3 17.3 0.1 24 9.1 23.9 23 0 14.7-10.6 27.1-26.7 27.1-16.6-0.1-24.2-8.3-24.1-22.8zm38.3-2.3c0.1-12.8-4.3-20.1-12.6-20.2-8.6 0-13.2 7.1-13.2 20-0.1 13.5 5.2 20.3 12.5 20.3 9 0.1 13.3-6.9 13.3-20.1zm16 22.4l3.2-1c1.4-0.5 2.5-1.5 2.6-4l0.2-12.4 0.1-21.3c0.1-3.2-0.7-4.2-2.8-4.9l-3-0.9c0-1 0.1-1.6 0.2-2l37.7 0.1v11.9c-0.8 0.2-2 0.3-2.7 0.3-0.9-4.5-3.2-7.3-6.3-7.5l-11.8-0.6-0.1 25.3 0.1 11.9c0.1 1.9 0.6 3.3 2 3.6l6.9 1.7c0 0.5 0 1.2-0.3 1.9l-25.8-0.1c-0.2-0.8-0.2-1.5-0.2-2zm42-19.7c0-15.3 12-27.3 26.9-27.2 17.3 0 24 9 23.9 23 0 14.7-10.6 27.1-26.7 27-16.6-0.1-24.2-8.3-24.1-22.8zm38.3-2.3c0.1-12.7-4.3-20.1-12.6-20.1-8.7-0.1-13.2 7-13.2 19.9-0.1 13.5 5.1 20.3 12.4 20.4 9.1 0 13.4-6.9 13.4-20.2zm-511.6-96.8h-0.4l-0.4 4.4-4.4 28.6c-0.2 1.2 0 2 0.8 2.3l6 1.9c0 0.7 0 1.4-0.3 2.2l-16.5-0.1c-0.1-0.9-0.2-1.2-0.2-1.9l2.4-1.1c1.9-1 3.2-3.3 3.5-5.4l5.7-33.1c0.3-1.6-0.6-3.2-1.9-3.7l-4.2-1.4c0-0.6 0.1-1 0.3-1.8h14.5l9.4 27.8 3.3 11h0.6l3.6-10.3 10.7-28.3h13.2c0.1 1 0.3 1 0.2 1.8l-3.2 1c-1.7 0.5-2.9 2.2-2.5 5.2l4.6 33.9c0.2 1.4 1.2 2.6 2.3 3.1l3.2 1.4c0 0.7-0.1 1.3-0.3 2.1l-18.7-0.1c-0.2-0.9-0.2-1.1-0.2-1.9l2.6-0.8c2.1-0.7 2.7-3 2.7-5.1 0-0.9-0.2-1.7-0.2-2.4l-2.6-24.1-0.4-4.6h-0.4l-14 38.6-5.4 1.7zm53.7 37.4l3.9-1c1.6-0.5 2.7-1.9 2.8-3.9l0.2-11.2 0.1-23.8c0-1.4-0.6-2.6-1.9-3.1l-4.4-1.5c-0.1-0.5 0-0.9 0.3-1.7l34.6 0.1v9.7c-0.8 0.3-1.9 0.1-2.6 0.2-0.7-4-2.3-5.8-5.5-5.9l-13.1-0.5v18.7l17.6-0.2v4.3l-17.7-0.4v4.2l0.3 14.7 12.1-0.2c4.8 0 7.6-3.1 9.2-6.7l2.2 0.6-1.4 10-36.5-0.1c-0.2-0.9-0.3-1.6-0.2-2.3zm51.2 0.3l4.8-1.2c1.5-0.5 2.5-2.6 2.5-4.7l0.3-9.4 0.1-27.3-9.8 0.1c-3.3 0-4.9 3-5.6 6.9-0.7 0.1-1.2 0-2.1-0.2v-10.5l42.5 0.1v10.6c-1 0.2-1.1 0.2-2.1 0.2-0.8-4.2-2.5-6.9-6.3-7l-9.2-0.1-0.1 27.3 0.3 11c0 2 0.3 2.8 1.6 3.1l5.6 1.2q0 1-0.2 2.2l-22-0.1c-0.2-1-0.4-1.3-0.3-2.2zm36.1-19.8c0-14.9 10.4-27 24.9-26.9 15.5 0 22.9 9.2 22.8 22.9 0 14.5-9.5 27.1-24.7 27-15 0-23.1-8.8-23-23zm39-2c0-11.5-4.4-20.9-14.9-20.9-11-0.1-15.4 9.2-15.4 20.7-0.1 11.4 4.3 21 14.7 21.1 11.4 0 15.5-9.2 15.6-20.9zm12.7 20.7h5.2c2.8-4.1 5.1-10.8 6.3-15.9 1.9-8.1 2.9-16.7 3.1-21.9 0.1-1.6-0.5-3.1-2-3.7l-3.6-1.3q0-0.9 0.3-2l35.5 0.2c0.1 1.1 0.1 1.2 0 2.1l-3.4 0.9c-1.3 0.4-2 0.9-2 2.6l-0.1 24.5 0.2 14.7 7.1 0.1-0.1 15.4c-0.7 0.2-1.9 0.3-2.6 0.1-0.7-3.1-2.4-11.9-7.9-12l-24.5-0.1c-8.3 0-8.2 8.9-9 12-0.5 0.2-1.8 0.2-2.6 0.1zm31.6 0.2l0.3-14.5 0.2-26.7h-12.9l-1.3 12.4c-0.4 4.7-1.3 10.2-2.5 15.6-1.1 4.6-2.6 9.1-4.4 13.1zm19.2 1.7l3.7-1.2c1.7-0.7 2.7-3 2.8-5l0.2-10.1 0.1-23.1c0-1.9-0.7-3.6-2.3-4l-4.2-1.2c0-0.6 0.1-1.1 0.3-1.9l19 0.1c0.2 0.9 0.2 1.2 0.2 2l-3.5 0.9c-1.7 0.5-2.1 1.2-2.1 3.1l-0.2 26.7 24.5-22.7v-3.9c0-1.9-0.9-2.4-2.6-3l-3.3-1.2c0.1-0.6 0-1.1 0.2-1.8l18.7 0.1c0 1 0.1 1.1-0.1 2l-3.6 0.9c-1.3 0.4-1.9 0.9-1.9 2.8l-0.1 24.4 0.2 11.7c-0.1 1.8 0.5 2.7 1.5 3l4.9 1.3c0 0.6 0 1.6-0.2 2.3l-19.9-0.1c-0.2-0.9-0.2-1.3-0.2-2.1l2.9-0.9c2.4-0.7 3.2-3 3.2-4.8l0.3-10.5v-15.1l-24.5 22.8 0.2 4c0 1.7 0.6 2.4 2 2.9l5.2 1.5c0 0.6-0.1 1.4-0.3 2.2l-20.7-0.1c-0.3-0.9-0.4-1.1-0.4-2zm56.2 0.3l4-1.3c1.7-0.6 2.5-2.2 2.6-4.4l0.2-10.6 0.1-23c0-1.8-0.7-3.6-2-4.1l-3.9-1.3c-0.1-0.6-0.1-1.1 0.1-1.8l18.4 0.1c0.2 0.8 0.3 0.9 0.2 1.7l-3 1.1c-1.7 0.7-2.4 2.5-2.4 4.5l-0.1 22.4 0.2 12.4c-0.1 1.8 0.3 2.4 1.4 2.8l3.9 1.3c0 0.6-0.1 1.5-0.4 2.2l-19.1-0.1c-0.1-0.9-0.2-1-0.2-1.9zm31.4-2.5l-16.5-19v-1.2l15.9-15.8c0.8-0.8 1.7-2 1.7-2.9 0-1-0.7-1.8-1.7-2.1l-2.8-0.9q0-0.9 0.3-2l14.9 0.1v1.9l-21.3 19.7 14.3 16.3c3.7 4.2 6.6 6.9 10 9l-0.6 2.3c-4.1 0-10.3-0.9-14.2-5.4z"/><path fill-rule="evenodd" class="a" d="m737.6-194.3l1.4-1.1c1.3-1 2-2.2 2.7-3.7l16.7-40 5.1-1.8 14.2 40.9c0.8 2.1 1.7 3.6 3.1 4.8l1.1 0.9c0 0.7-0.1 1.3-0.4 1.9h-18c-0.1-0.9-0.2-1-0.2-1.9l4.2-1.2c1.4-0.4 2-1.8 2-3.3 0-0.6-0.1-1.2-0.3-1.8l-3.4-11.1h-14.9l-4.4 11.4c-0.9 2.2 0.3 4 2.8 4.8l3.2 1.2c0 0.7 0 1.2-0.2 1.9h-14.5c-0.2-0.5-0.2-1.5-0.2-1.9zm27.1-20.9l-3.8-12.5-1.5-5.5h-0.4l-1.9 5.3-4.8 12.7z"/><path fill-rule="evenodd" class="b" d="m575.7-313.6c-55.5-73.6-133 18.1-144.9-92.4 55 26.6 123.9-20.3 144.9 92.5z"/><path fill-rule="evenodd" class="b" d="m584-349.7c25.6-72.4 110.1-19.1 91.8-109.8-37 34.9-103.5 15-91.8 109.8z"/><path fill-rule="evenodd" class="b" d="m574.8-349.4c-25.6-72.5-110.1-19.1-91.8-109.8 37 34.9 103.5 15 91.8 109.8z"/><path fill-rule="evenodd" class="b" d="m584-314.7c55.5-73.7 133 18 144.9-92.4-55 26.5-123.9-20.3-144.9 92.4z"/><path fill-rule="evenodd" class="c" d="m295.5-286.3c82.7-18.8 174.5-27 282.6 3.5-91.1-52.4-192.7-56.3-269.2-40.8q-13.4 37.3-13.4 37.3zm0 0q0 0 0 0zm565.3 0q0 0-13.5-37.3c-76.4-15.5-178-11.6-269.2 40.8 108.1-30.5 200-22.3 282.7-3.5z"/><path fill-rule="evenodd" class="c" d="m796.3-337.1c-66.8-2-139.1 5.8-218 45.8 55.5-49.5 147.2-64.7 207.9-62.5 10.8 17.8 10.1 16.7 10.1 16.7z"/><path fill-rule="evenodd" class="c" d="m360.4-337.1c0.1-0.2 1.2-2 10.1-16.7 60.7-2.2 152.4 13 207.8 62.5-78.8-40-151.1-47.8-217.9-45.8zm217.7 54.3c5.2-2 11.6-4.8 16.8-4.9l-0.1 12-33.9-0.2-0.4-11.6c6.4 0.4 11.9 2.7 17.6 4.7zm-217.7-54.3z"/><path fill-rule="evenodd" class="d" d="m578.8-399.3q3.7-17.3 17.9-28.1-0.1-1.5-0.1-3-0.7-21 8.5-35.1 12-12.2 19.1-26.8 5.2-2.8 9.8-9.7 7.4-10.2 12.7-15.3c1.8-0.7 4.3-1.5 7.9-1.3 3.7 1.8 10 1.4 11.5 0.3 0.4-1.5-5.1-1-5.9-1.8 16.3-4 1.1-3.3-0.2-4.1 11.6-3.4 7.3-3.6-0.7-3.5 5.1-1 11.4-6.2 3-3.5q-10.1 2.6-10.8 1.3 3.9-5.7 1.8-7.9-4.4 4-12.8 13.3-9.8 10.8-24.6 24.4-7 11.1-21.3 22.5-5.1-0.6-4.4-5.1 3.4-3.4 4.4-8.8 5.9 1.5 7.5-7.7 1.1-3.7-1-4.1c0.3-3.9 0.4-7.9 0.1-15.3 0.5-2.4-3.1-5.7-8-8.7-1.7-2.4-5.2-3.5-10.3-2.4-6.7-4.2-15-0.6-20.1 6.5 0.8-1 3.6-1.9 5-1.4-2.2 2.5-2.1 2.7-4.1 6.2q-2.9 3.2-1.8 9.1-2.1 8.7 2.4 12.4 0.6 3.5 2 7.5-7.7-9.5-15.3-18.9-1.9-7.4-9.7-16.2-5.2-7.5-9.2-14.2 0-6.4-1.9-9.8-0.3-7.1-0.3-7.1-2.1-0.1-2.7 4.5-0.7-2.5-2.8-2.7-0.8 1.3-0.7 6.1c0 8.2-0.6 10.4 0 12.7 4.6 1.6 6.5 13.6 11.6 20.4q5 8.8 6.6 11.8-0.4 3.4 15.6 25 1 3.4 0.2 7.9-3 22.7 2 42.9 15.5 9.8 19.1 27.7z"/><path fill-rule="evenodd" class="d" d="m604.3-525.9q-2.3 5.5-3.4 7.8-6.1-6.3-13.5-9.4-5.4-2.2-14.8-2.7 3.5-7.8 3.5-7.8 9.2-0.4 16.1 2.4 6.1 2.6 12.1 9.7z"/><path fill-rule="evenodd" class="d" d="m567.2-546.4q4.6 5.9 6.9 8.8 0 0 1.1-2.4 9.6-0.3 17.3 2.8 8.3 3.8 14 11.3 0 0-0.6 1.4 6.8 0.2 10.9 0-18-24.7-18-24.7-31.6 2.8-31.6 2.8z"/><path fill-rule="evenodd" class="a" d="m615-501.7c0.4-7.9 0.6-14.2 1.3-22.8 0-0.2 0.4-0.1 0.5 0q0.3 22.6 0.3 22.6c-0.8 0.3-2.1 0.2-2.1 0.2z"/><path fill-rule="evenodd" class="d" d="m617.9-477.8c-3.1-4.3-8.8-9.6-13-11.4 0 0-4.7 8.1-10.3 11.6q0 0 10.6 12.1c4.4-4.8 9.6-8.1 12.7-12.3zm-59.9 3.3c7.1-8 12-14 12-14-5.7-3.6-10.4-11.7-10.4-11.7-4.2 1.9-9.9 7.2-13 11.5 3.2 4.2 10.5 7.6 11.4 14.2z"/><path class="a" d="m595.3-633.3l5.7 0.4-2.4 31.2-4.1-0.3 2-26.1-15.9 25.1-5.7-0.5 2.4-31.2 4.1 0.3-2 26.2z"/><path class="a" d="m563.9-612.7q0-2.9-1.7-4.3-1.7-1.3-5.1-1.3l-6.8 0.2 0.3 11.5 6.8-0.2q3.4-0.1 5-1.5 1.6-1.5 1.5-4.4zm-18.3-21.7l20.1-0.5v3.5l-15.7 0.4 0.2 9.4 7-0.1q5.3-0.2 8.2 2 2.9 2.3 3 6.9 0.1 4.7-2.6 7-2.7 2.4-8.1 2.5l-11.3 0.3z"/><path class="a" d="m635-622.2l-1 4.3q-1.7-2.4-3.8-3.9-2.1-1.5-4.8-2.1-5.2-1.3-8.7 1.3-3.6 2.6-5 8.6-1.4 6 0.7 9.9 2 3.8 7.3 5 2.6 0.7 5.2 0.2 2.6-0.4 5.1-1.8l-1 4.3q-2.5 1-5.1 1.1-2.6 0.2-5.3-0.4-6.9-1.6-9.9-6.8-3-5.1-1.3-12.5 1.7-7.4 6.6-10.7 5-3.3 11.9-1.7 2.8 0.6 5 1.9 2.3 1.3 4.1 3.3z"/><path class="a" d="m513.3-600.5l-0.8-4.3q5 3.1 10.3 2.1 5.5-0.9 7.4-4.3 1.9-3.4 1.5-8.4l-16.5 3-0.6-3.6 16.5-2.9q-1.4-4.9-4.3-7.4-3-2.5-8.5-1.5-5.3 0.9-8.9 5.6l-0.8-4.4q3.8-3.7 9.4-4.7 6.9-1.2 11.7 2.4 4.8 3.5 6.1 10.9 1.3 7.5-1.9 12.5-3.3 5-10.2 6.2-5.5 1-10.4-1.2z"/><path class="a" d="m639.4-619.7l1.1-3.4 25.1 8.5-1.1 3.4-10.5-3.5-9 26.3-4-1.4 8.9-26.3z"/><path class="a" d="m502.4-605.2q-0.8-2.8-2.8-3.7-2-0.9-5.3 0l-6.5 1.9 3.1 11 6.6-1.8q3.3-1 4.4-2.8 1.3-1.8 0.5-4.6zm-23.2-16.4l19.3-5.5 1 3.4-15.2 4.3 2.5 9 6.8-1.9q5-1.4 8.4 0 3.4 1.4 4.7 5.9 1.2 4.5-0.8 7.4-2 3-7.3 4.5l-10.8 3z"/><path class="a" d=""/><path class="a" d="m692.8-600.5l-23 19.2q-0.9 0.7-1.8 1.1-2.4 1-7.1-1.4l-1.4-0.8 1.6-3.1 1.2 0.6q2.2 1.1 3.3 1 0.7 0 1.4-0.6l1.9-1.6 1.9-25.7 4 2.1-1.4 19.9 15.3-12.8z"/><path class="a" d="m450.3-608.4l5-2.6 14.3 27.9-3.6 1.9-12-23.3-0.4 29.7-5.1 2.6-14.3-27.9 3.7-1.9 11.9 23.3z"/><path class="a" d="m688.5-568l11.3 8 14-19.7-8.3-5.9-2.6 3.6q-6 8.6-12 12.9-1.2 0.9-2.4 1.1zm-6.3-4.4l1.2 0.8q3.1 0.6 5.2-1 5.4-4.1 12.1-13.5l3.4-4.8 15.2 10.8-16.1 22.6 2.9 2.1-5.9 8.4-2.9-2.1 3.9-5.5-18.1-12.9-3.9 5.5-2.9-2z"/><path class="a" d="m428.5-554.9l-18.1-25.6 3.4-2.4 9 12.6 3.4-21.4 4.4-3.2-2.7 17.1 21.4 8.1-3.8 2.7-18.2-6.9-1.3 8.1 6 8.4z"/><path class="a" d="m705.4-549.3l20.5-23.7 15 13-2.3 2.7-11.8-10.2-6.1 7 11.3 9.8-2.3 2.7-11.3-9.8-7.5 8.6 12.1 10.4-2.3 2.7z"/><path class="a" d="m727.4-530.6l23.7-20.6 2.8 3.3-9.7 8.4 10.1 11.6 9.7-8.4 2.8 3.2-23.7 20.5-2.8-3.2 11.3-9.7-10.1-11.7-11.3 9.8z"/><path class="a" d="m393.7-562.1q-3.5 3-3.3 7.4 0.2 4.4 4.1 8.9 3.9 4.5 8.2 5.3 4.3 0.8 7.8-2.2 3.5-3 3.3-7.4-0.2-4.4-4.1-8.8-3.9-4.5-8.2-5.4-4.3-0.8-7.8 2.2zm-2.2-2.6q4.9-4.3 10.8-3.5 5.9 0.7 10.8 6.3 4.8 5.6 4.7 11.6-0.1 5.9-5 10.2-5 4.3-10.9 3.6-5.9-0.8-10.8-6.4-4.8-5.6-4.7-11.5 0.1-6 5.1-10.3z"/><path class="a" d="m369.5-537.3l-3.5 4 8.9 7.8 3.5-4.1q1.9-2.2 1.8-4.4-0.1-2.3-2.2-4.1-2.1-1.9-4.3-1.6-2.3 0.2-4.2 2.4zm14.8 25.5l-23.7-20.5 6.3-7.3q3.4-4 7-4.4 3.5-0.5 7 2.5 3.5 3 3.6 6.6 0 3.6-3.5 7.6l-3.5 4 9.6 8.3z"/><path class="a" d="m766.3-521.1l3-1.9 14.4 22.3-3 1.9-6-9.3-23.4 15-2.3-3.6 23.4-15z"/><path class="a" d="m356.2-522.3l15.6 25.5q0.6 1 0.9 2 0.6 2.4-2.4 6.7l-1 1.4-2.9-2.1 0.8-1.1q1.4-2 1.5-3.1 0.1-0.7-0.4-1.5l-1.3-2.1-25.2-5.6 2.7-3.7 19.5 4.3-10.5-17z"/><path class="a" d="m564.2 108v-3.5h6.8v-23.3l-7.4 1.4v-3.7l7.3-1.5h4.2v27.1h6.7v3.5zm26.5-0.6v-3.8q1.5 0.7 3.1 1.1 1.6 0.4 3.1 0.4 4.1 0 6.3-2.7 2.2-2.8 2.5-8.4-1.2 1.7-3 2.7-1.9 0.9-4.1 0.9-4.6 0-7.3-2.7-2.6-2.8-2.6-7.7 0-4.7 2.8-7.5 2.8-2.9 7.4-2.9 5.3 0 8.1 4.1 2.8 4.1 2.8 11.8 0 7.3-3.4 11.6-3.5 4.3-9.3 4.3-1.5 0-3.1-0.3-1.6-0.3-3.3-0.9zm8.2-13q2.8 0 4.4-1.9 1.6-1.9 1.6-5.3 0-3.3-1.6-5.2-1.6-1.9-4.4-1.9-2.8 0-4.4 1.9-1.7 1.9-1.7 5.2 0 3.4 1.7 5.3 1.6 1.9 4.4 1.9zm27.5-0.9q-3 0-4.7 1.5-1.6 1.6-1.6 4.4 0 2.8 1.6 4.3 1.7 1.6 4.7 1.6 2.9 0 4.6-1.6 1.7-1.6 1.7-4.3 0-2.8-1.7-4.4-1.6-1.5-4.6-1.5zm-4.2-1.8q-2.6-0.7-4.1-2.5-1.5-1.8-1.5-4.4 0-3.7 2.6-5.8 2.6-2.2 7.2-2.2 4.6 0 7.2 2.2 2.6 2.1 2.6 5.8 0 2.6-1.5 4.4-1.5 1.8-4.1 2.5 2.9 0.7 4.6 2.7 1.7 2.1 1.7 5 0 4.4-2.7 6.8-2.7 2.4-7.8 2.4-5.1 0-7.8-2.4-2.7-2.4-2.7-6.8 0-2.9 1.7-5 1.7-2 4.6-2.7zm-1.5-6.5q0 2.3 1.5 3.7 1.5 1.3 4.2 1.3 2.7 0 4.2-1.3 1.5-1.4 1.5-3.7 0-2.4-1.5-3.8-1.5-1.3-4.2-1.3-2.7 0-4.2 1.3-1.5 1.4-1.5 3.8zm33.2 5.8q-2.8 0-4.4 1.9-1.6 2-1.6 5.3 0 3.3 1.6 5.2 1.6 1.9 4.4 1.9 2.8 0 4.4-1.9 1.6-1.9 1.6-5.2 0-3.3-1.6-5.3-1.6-1.9-4.4-1.9zm8.2-12.9v3.7q-1.5-0.7-3.1-1.1-1.6-0.4-3.2-0.4-4.1 0-6.2 2.8-2.2 2.8-2.5 8.4 1.2-1.8 3-2.8 1.9-0.9 4-0.9 4.7 0 7.3 2.8 2.7 2.8 2.7 7.6 0 4.7-2.8 7.5-2.8 2.9-7.4 2.9-5.3 0-8.1-4.1-2.8-4-2.8-11.8 0-7.2 3.4-11.5 3.5-4.4 9.3-4.4 1.5 0 3.1 0.3 1.6 0.3 3.3 1z"/><path class="e" d="m545.2 73.6c36-17.3 77.5-17.5 120.2-0.6m-101.8 54.5c25.4-10.6 53.6-10.6 83.3-0.1"/><path fill-rule="evenodd" class="a" d="m396.4 252.6q-0.1-2-0.2-4-0.1-2-0.2-4 0-1.9 0.1-3.6h-0.2q-0.5 2.5-1.1 5.1-0.6 2.6-1.3 5.2l-3.6 13.9h-2.2l-3.4-13.3q-0.8-2.9-1.4-5.6-0.6-2.7-1.1-5.3h-0.1q0 2.6-0.1 5.7-0.1 3-0.2 6.1l-0.6 12.6h-3l1.7-29.6h3.7l3.4 13.5q0.5 1.9 1 3.6 0.4 1.7 0.7 3.3 0.4 1.6 0.7 3.3h0.1q0.3-1.7 0.6-3.3 0.4-1.6 0.8-3.2 0.3-1.7 0.8-3.7l3.4-13.5h3.7l1.8 29.6h-3.2zm22.5-1.3h-7.4v11.1h8.4v2.9h-11.8v-29.6h11.3v2.9h-7.9v9.8h7.4zm11.6-12.5h-5.4v-3.1h14.2v3.1h-5.4v26.6h-3.4zm27.2-1.7q1.8 1.8 2.8 5.1 0.9 3.4 0.9 8.1 0 4.2-0.6 7.1-0.7 2.9-1.9 4.8-1.1 1.8-2.7 2.6-1.5 0.9-3.3 0.9-2.5 0-4.3-1.7-1.9-1.8-2.9-5.1-1-3.4-1-8.4 0-4.9 1.1-8.3 1.1-3.4 3-5.1 2-1.7 4.6-1.7 2.5 0 4.3 1.7zm-6.5 1.9q-0.9 0.7-1.5 1.9-0.5 1.2-0.9 2.7-0.3 1.6-0.5 3.3-0.1 1.8-0.1 3.6 0 1.9 0.1 3.6 0.2 1.8 0.5 3.3 0.4 1.6 1 2.8 0.5 1.1 1.4 1.8 0.8 0.7 1.9 0.7 1.2 0 2-0.7 0.8-0.7 1.4-1.9 0.5-1.3 0.8-2.8 0.4-1.6 0.5-3.4 0.1-1.7 0.1-3.5 0-1.6-0.1-3.3-0.1-1.7-0.5-3.3-0.3-1.6-0.9-2.8-0.5-1.2-1.3-1.9-0.9-0.7-2-0.7-1.1 0-1.9 0.6zm32.6-3.3v26.7l2 0.1-0.2 8.9h-2.7l-0.2-6.1h-13l-0.2 6.1h-2.7l-0.2-8.9 2-0.1q0.8-2 1.4-4 0.6-2 1-4 0.5-2.8 0.7-5.8 0.2-3 0.2-6.2v-6.7zm-8.8 7.4q0 3.1-0.2 6.1-0.2 2.9-0.6 5.7-0.4 2-0.9 3.8-0.5 1.9-1.2 3.7h8.4v-23.7h-5.5zm21.1-7.4v10.6q0 1.9-0.1 3.6 0 1.7 0 3.3-0.1 1.7-0.2 3.3 0 1.6-0.1 3.3 0.6-1.6 1.2-3.3 0.7-1.8 1.4-3.6 0.6-1.8 1.3-3.4l5.3-13.8h3.1v29.6h-3v-10.2q0-2.4 0-4.3 0.1-2 0.1-3.6 0-1.7 0.1-3.2 0.1-1.4 0.2-2.9h-0.1q-0.8 2.7-1.8 5.2-0.9 2.5-1.8 4.7l-5.5 14.3h-3.2v-29.6zm24 0v13.4h0.6l6.2-13.4h3.7l-7.2 13.8q1.4 0.3 2.3 1 0.9 0.7 1.6 1.7 0.6 1 1 2.3 0.4 1.2 0.7 2.5 0.3 1.4 0.5 2.9 0.3 1.4 0.7 2.7 0.3 1.4 0.7 2.7h-3.4q-0.3-1-0.6-2.2-0.3-1.3-0.6-2.6-0.2-1.3-0.5-2.6-0.3-1.3-0.6-2.5-0.4-1.1-1-2-0.5-0.8-1.4-1.3-0.9-0.5-2.2-0.5h-0.5v13.7h-3.3v-29.6zm20.7 20.7l-1.9 8.9h-3.3l6.7-29.6h3.8l6.6 29.6h-3.4l-1.9-8.9zm6.1-2.7l-1.6-7.5q-0.2-1.1-0.4-2.2-0.2-1.2-0.4-2.3-0.2-1.2-0.3-2.3h-0.2q-0.1 1.2-0.4 2.3-0.2 1.2-0.4 2.3-0.2 1.2-0.4 2.2l-1.5 7.5zm32.2-18v2.9h-9.2v8.9q0.6-0.1 1.2-0.1 0.5-0.1 1.1-0.1 1.9 0 3.5 0.6 1.6 0.6 2.8 1.8 1.2 1.1 1.8 2.7 0.7 1.6 0.7 3.7 0 2-0.6 3.6-0.5 1.6-1.6 2.8-1.2 1.5-3.2 2.2-2 0.8-4.6 0.8-1.6 0-2.7-0.1-1-0.1-1.7-0.2v-29.5zm-9.2 26.9q0.5 0.1 0.9 0.1 0.4 0 0.9 0 1.5 0 2.6-0.5 1.1-0.5 1.9-1.5 0.6-0.8 1-2 0.3-1.1 0.3-2.4 0-1.3-0.4-2.4-0.4-1.1-1.1-2-0.8-0.8-1.9-1.3-1.1-0.5-2.5-0.5-0.4 0-0.8 0.1-0.4 0-0.9 0.1zm29.2-11.4h-7.5v11.2h8.5v2.9h-11.8v-29.6h11.2v2.9h-7.9v9.8h7.5zm21.7-15.6v29.6h-3.4v-26.6h-6.2v10.1q0 2.9-0.1 5.4-0.1 2.5-0.5 4.6-0.3 2.1-1 3.6-0.8 1.5-2 2.4-0.6 0.4-1.2 0.6-0.7 0.3-1.5 0.3l-0.7-2.9q0.5 0 0.9-0.2 0.4-0.2 0.7-0.5 0.9-0.8 1.4-2.4 0.5-1.6 0.7-4.2 0.2-2.6 0.2-6.2v-13.6zm20.4 1.4q1.8 1.8 2.8 5.1 1 3.4 1 8.1 0 4.2-0.7 7.1-0.6 2.9-1.8 4.8-1.2 1.8-2.7 2.6-1.6 0.9-3.4 0.9-2.5 0-4.3-1.7-1.9-1.8-2.9-5.1-1-3.4-1-8.4 0-4.9 1.1-8.3 1.1-3.3 3-5.1 2-1.7 4.6-1.7 2.5 0 4.3 1.7zm-6.5 2q-0.9 0.6-1.4 1.8-0.6 1.2-0.9 2.7-0.4 1.6-0.5 3.4-0.2 1.7-0.2 3.5 0 1.9 0.2 3.6 0.1 1.8 0.5 3.4 0.3 1.5 0.9 2.7 0.6 1.2 1.4 1.8 0.8 0.7 2 0.7 1.1 0 1.9-0.7 0.8-0.7 1.4-1.9 0.5-1.3 0.9-2.8 0.3-1.6 0.4-3.4 0.2-1.7 0.2-3.5 0-1.6-0.2-3.3-0.1-1.7-0.4-3.3-0.4-1.6-0.9-2.8-0.6-1.2-1.4-1.9-0.8-0.7-2-0.7-1.1 0-1.9 0.7zm31.3-3.4v29.6h-3.4v-26.6h-6.2v10.1q0 2.9-0.1 5.4-0.1 2.5-0.5 4.6-0.3 2.1-1 3.6-0.8 1.5-2 2.4-0.6 0.4-1.2 0.6-0.7 0.3-1.5 0.3l-0.7-2.9q0.5 0 0.9-0.2 0.4-0.2 0.7-0.5 0.9-0.8 1.4-2.4 0.5-1.6 0.7-4.2 0.2-2.6 0.2-6.2v-13.6zm11.7 0v10.6q0 1.9 0 3.6-0.1 1.8-0.1 3.4-0.1 1.6-0.1 3.2-0.1 1.7-0.2 3.4h0.1q0.5-1.6 1.1-3.4 0.7-1.8 1.4-3.5 0.7-1.8 1.3-3.4l5.3-13.9h3.2v29.6h-3v-10.2q0-2.4 0-4.3 0-1.9 0-3.6 0.1-1.6 0.1-3.1 0.1-1.5 0.2-3h-0.1q-0.8 2.8-1.7 5.3-1 2.4-1.8 4.7l-5.6 14.2h-3.2v-29.6zm35.5 0v29.6h-3.4v-26.6h-8.1v26.6h-3.3v-29.6zm19.4 15.6h-7.5v11.1h8.5v2.9h-11.8v-29.6h11.3v3h-8v9.7h7.5zm11.4-15.5v26.6h8.1v-26.6h3.4v26.7h1.9l-0.1 9h-2.7l-0.2-6.1h-13.7v-29.6zm23.9 0v13.4h0.6l6.3-13.4h3.7l-7.3 13.8q1.4 0.3 2.3 1 1 0.7 1.6 1.7 0.6 1 1 2.2 0.4 1.3 0.7 2.6 0.3 1.4 0.6 2.8 0.3 1.5 0.6 2.8 0.3 1.4 0.8 2.7h-3.4q-0.4-1-0.7-2.2-0.3-1.3-0.5-2.6-0.3-1.3-0.6-2.6-0.2-1.4-0.6-2.5-0.4-1.1-0.9-2-0.6-0.8-1.5-1.3-0.9-0.5-2.2-0.5h-0.5v13.7h-3.3v-29.6zm29 1.4q1.8 1.7 2.8 5.1 0.9 3.3 0.9 8.1 0 4.1-0.6 7.1-0.7 2.9-1.9 4.7-1.1 1.8-2.7 2.7-1.5 0.8-3.3 0.8-2.5 0-4.4-1.7-1.8-1.7-2.8-5.1-1-3.4-1.1-8.4 0.1-4.9 1.2-8.2 1-3.4 3-5.1 2-1.8 4.5-1.8 2.6 0 4.4 1.8zm-6.6 1.9q-0.8 0.7-1.4 1.9-0.5 1.1-0.9 2.7-0.3 1.5-0.5 3.3-0.1 1.8-0.1 3.6 0 1.8 0.1 3.6 0.2 1.8 0.5 3.3 0.4 1.5 0.9 2.7 0.6 1.2 1.5 1.9 0.8 0.6 1.9 0.6 1.2 0 2-0.7 0.8-0.7 1.3-1.9 0.6-1.2 0.9-2.8 0.3-1.6 0.5-3.3 0.1-1.8 0.1-3.5 0-1.7-0.1-3.4-0.2-1.7-0.5-3.3-0.3-1.5-0.9-2.7-0.5-1.3-1.4-2-0.8-0.7-1.9-0.7-1.1 0-2 0.7zm29.3-3.3v2.9h-8.2v26.7h-3.4v-29.6zm18.4 1.4q1.8 1.7 2.8 5.1 1 3.3 1 8.1 0 4.1-0.7 7.1-0.6 2.9-1.8 4.7-1.2 1.8-2.7 2.7-1.6 0.8-3.4 0.8-2.5 0-4.3-1.7-1.8-1.7-2.9-5.1-1-3.4-1-8.4 0-4.9 1.1-8.2 1.1-3.4 3.1-5.1 1.9-1.8 4.5-1.8 2.5 0 4.3 1.8zm-6.5 1.9q-0.8 0.7-1.4 1.9-0.6 1.1-0.9 2.7-0.4 1.5-0.5 3.3-0.2 1.8-0.2 3.6 0 1.8 0.2 3.6 0.1 1.8 0.5 3.3 0.3 1.5 0.9 2.7 0.6 1.2 1.4 1.9 0.9 0.6 2 0.6 1.1 0 1.9-0.7 0.8-0.7 1.4-1.9 0.5-1.2 0.9-2.8 0.3-1.6 0.4-3.3 0.2-1.8 0.2-3.5 0-1.7-0.2-3.4-0.1-1.7-0.4-3.3-0.4-1.5-0.9-2.7-0.6-1.3-1.4-2-0.8-0.7-2-0.7-1.1 0-1.9 0.7zm-487.9-164.3q1.5 4.9 3.1 9.8 5.1 0 10.3 0-4.2 3-8.4 6 1.6 4.9 3.2 9.8-4.2-3-8.3-6.1-4.2 3.1-8.4 6.1 1.6-4.9 3.3-9.8-4.2-3.1-8.4-6.1 5.2 0 10.3 0.1 1.6-4.9 3.3-9.8zm-3.6 107.8q3.8-0.9 7.8-1.6 4-0.7 7.7-1.1l1.6-0.2v1.6l-0.4 72.6v1.2l-1.1 0.2c-9.5 1.8-18.5 4.1-27 7.1-8.6 3-16.7 6.8-24.5 11.7l-0.7 0.4-0.8-0.5c-7.8-4.8-15.8-8.7-24.4-11.8-8.5-3.1-17.4-5.5-26.9-7.3l-1.1-0.3v-1.1l0.3-72.7v-1.6l1.6 0.2c3.8 0.5 7.7 1.2 11.7 2 1.7-0.2 2.9-0.8 4-2 4.1-4 7.9-10.3 10.6-15.3l-1-0.8c1.1-1.1 1.3-1.3 2-2.3 2.7-4.1 4.6-7.5 8-11l1.4-2.3c0.6-1.3-0.7-2.9-1.9-2.7-1 0.1-2.1 0.2-3.2 0-5.7-0.7-9.3-3.3-12.9-9.2q-0.4-0.7-0.7-1.4l-12.2-14.9-1.4 1.1-7.5 2.9-0.8 32.9-1.5-1 1.8-32.4 0.6-0.6 35.7-29.3 0.6 0.6-3.3 5.9-2.5 2.1 12.2 14.8q0.8 0.1 1.6 0.1c2.2-0.1 1.5 3.8 1.5 3.8 1.2 1.4 1.6 2.8 2.5 4.6 0.6 0.9 2.1 1.4 3.4 2.2 0.6 0.4 0.7 1.2 0.2 2-0.2 0.2 1.8 2.7 2 3.1 2 3.5-0.3 5.1-2.6 7.6-0.6 0.6-1.1 1.3-1.1 1.7-0.1 0.8 0.6 1.4 1.2 2.1 0.9-0.6 1.8-1.3 2.6-2h0.1v-0.1h0.1l0.1-0.1c1-0.8 2.1-1.6 3.1-2.4 0.6-0.5 0.6-0.7 1-1.3 1.6-2.4 2-4.1 3.8-6.3 0.8-0.9 1.4-2.4 1.9-3.4 2.2-4.1 4.9-5.6 7.6-8 1-0.9 1.9-2 2.7-3.2 0.5-1.1 0.5-1.4 0.9-2.5 0.2-0.9 0.5-2.2 0.5-3.2 0-0.7-0.1-1.3-0.2-1.9-0.3-1.9-0.8-3.7-1.2-5.6q0-0.3 0-0.6c-0.1-0.4-0.1-1 0.4-1.2 0.6-0.1 0.7 0.4 0.9 0.9q0.2 0.8 0.4 1.5c0 0.1 0.1 0.3 0.1 0.4 0.1 0.2 0.3 0.8 0.5 0.8 0.2 0 0.2-1 0.2-1.2q0.1-0.6 0.1-1.2 0.1-0.4 0.1-0.9c0-0.4 0-0.7 0.1-1.1 0.1-0.3 0.4-0.5 0.7-0.4 0.2 0 0.3 0.1 0.5 0.4 0.3 0.5 0.3 1 0.3 1.6 0 0.1-0.1 0.6-0.1 0.6 0.2 0.7 0.1 1.2 0.1 1.8 0 0.2 0 0.7 0 0.7 0.3 0.8 0.1 2 0.4 2.1 0.2 0 0.3-0.3 0.5-0.8q0-0.3 0.1-0.5c0.1-0.6 0.3-1.1 0.5-1.8 0.1-0.1 0.1-0.3 0.1-0.4q0.1-0.3 0.1-0.6 0.1-0.4 0.2-0.8c0.1-0.3 0.1-0.7 0.5-0.9 0.4-0.2 0.7 0.3 0.8 0.7 0.1 0.5 0.1 0.8 0.1 1.4 0 0.3-0.2 0.7-0.2 0.7 0 0.9-0.2 1.5-0.4 2.3 0 0 0 0.7 0 0.9-0.1 0.3-0.4 1.1-0.4 1.1 0.1 0.8 0.2 1.9 1.4 1.5l0.6-0.3q0.4-0.1 0.7-0.3c0.3-0.1 0.5-0.2 0.7-0.3q0.2-0.1 0.3-0.2c0.6-0.3 1-0.5 1.6-0.7 0.4-0.1 0.6 0.3 0.6 0.6-0.2 0.6-0.6 0.9-1.2 1.3-0.3 0.2-1 0.6-1 0.6 0 0-0.9 0.5-1.1 0.7-0.7 0.4-1 0.6-1.5 1.2-0.2 0.4-0.4 0.6-0.4 1 0 0 0 0.4-0.1 0.6-0.1 0.2-0.2 0.4-0.2 0.4-0.2 1.9-1 3.1-2.5 4-1.9 2.8-3.2 5.9-4.9 8.7-1.4 2.2-2.3 3.7-3.6 5.9 0 0-0.5 0.8-0.9 1.2-1.7 1.7-2.1 3.9-3.3 6-1.1 2-2.2 4.2-3.4 6.3q0.1 0.1 0.1 0.2c0.5 0.7 1.4 2.4 1.4 2.4l-3.1 3.3c0.8 1.9 1.2 3.2 1.8 5.3 2 6.5 2 14.8 2.5 21.5 0.1 1.4 0.4 1.2 1.3 2 1 0.8 0 1.6 0.4 1.8 2.3 1.5 4.4 2.7 6.1 4 5.6-2.1 11.6-3.9 17.6-5.3zm-28.1-35.2c-0.3-0.4 0-0.1 0 0zm0 0q0 0 0 0zm0 0zm-6.4 51.2l-0.4 0.2-0.3 71.5c7.3-4.3 14.9-7.7 22.8-10.6 8.4-2.9 17.1-5.2 26.3-6.9l0.3-69.9q-3 0.4-5.9 0.9-3.8 0.7-7.7 1.6c-5.3 1.2-10.6 2.8-15.7 4.5 2.2 2.2 3.7 4.9 4.4 9.6l-1.7 0.4c-1.9 6.6-7.4 13-9.8 19.5l0.8 0.4c0.3 0.2 0.2 0.7 0.3 1.1 0.9 3.6 5.8 8.9 4.2 11.3-2.2 2.3-4.9-0.3-6.5-1.9-1.4-1.5-2.5-2.3-4.4-3.3-1.6-0.8-5-2.3-5.5-4.4-0.1-0.7 0.1-1.5 0.4-2.2 0.1-0.4 2.2-3.2 2.8-3.6 0.5-0.3 1.2-0.4 1.7-0.7 1.9-3.3 2.6-8.9 4.5-12.4l-2.7 0.6c-2-2.7-4.8-4.4-7.9-5.7zm-17.3-9.7q-0.3-0.9-0.3-1.7c-0.1-2.7-0.1-4.9-0.3-7.6-0.2-2-0.2-7.8-0.4-9.8-1.9-1.1-1.5-0.8-3-1.6-3 4.4-7.8 9-11.1 13.2-0.5 0.7-0.9 1.4-1.5 2 5.7 1.5 11.3 3.3 16.6 5.5zm13.8 81.4l0.3-71.5q-2.6-1.5-5.4-3-3.3-1.6-6.7-3.1c-11.4-4.8-24.6-8.5-36.9-10.3l-0.3 69.9c9.2 1.8 17.9 4.2 26.2 7.2 7.9 2.9 15.5 6.5 22.8 10.8zm73.5-185.1q-1 2.2-2 4.4 1.8 1.6 3.5 3.3-2.4-0.3-4.8-0.6-1 2.2-2 4.4-0.5-2.4-0.9-4.8-2.4-0.3-4.8-0.5 2.1-1.2 4.2-2.4-0.5-2.4-0.9-4.7 1.7 1.6 3.5 3.3 2.1-1.2 4.2-2.4zm-14.5 17.7q0.6 4 1.1 8 4 0.7 8 1.5-3.6 1.7-7.3 3.5 0.6 4 1.1 8-2.8-2.9-5.6-5.9-3.6 1.8-7.3 3.6 2-3.6 3.9-7.1-2.8-3-5.6-5.9 3.9 0.7 7.9 1.5 1.9-3.6 3.8-7.2z"/><path fill-rule="evenodd" class="a" d="m453.7 207.6h9c0.6 0 1.6 0 2.4 0l1.2 4.2c1.3 4.3 2.8 5.5 6.1 5.5 1.9 0 4.4-0.4 5.8-1.2l-13.5-42.5c-1.6-0.3-4.1-0.5-5.8-0.5-1.7 0-4.2 0.1-5.9 0.4l-14.1 42.3 0.4 0.5c1.2 0.5 3.3 0.7 4.9 0.8 1.5 0 3-0.1 4.2-0.4l2.8-9.2c0.8 0.1 1.7 0.1 2.5 0.1zm-48.7-34.5l-0.4 0.5-0.2 42.5 0.4 0.5c5.5 0.1 10.7 0.3 15.6 0.3 9.6 0 15.8-3.9 15.9-12.7 0-5.1-3.4-9.6-7.6-11 3.2-1.4 5.6-4.9 5.7-8.7 0-7.9-6-11.5-14.8-11.5-4.5-0.1-9.5 0-14.6 0.1zm14.7 24.4c5.1 0 6.4 3.4 6.4 6.2 0 2.6-1.2 6.1-6.4 6-1.3 0-3.3 0-5.3 0.1l0.1-12.4zm-5.2-17.4c1.6 0.1 3.4 0.1 4.5 0.1 4.3 0 5.5 2.6 5.4 5 0 2.5-1.2 5.2-5.5 5.1h-4.5zm379.8 38.1c1.7 0.3 3.7 0.4 5 0.4 1.4 0 3.3 0 5.1-0.3l0.1-30.2c0.1-1.7 0-2.9 0-4.7h0.1c0.9 0 3 0.1 4 0.1h1.8c3.6 0 5.3-1.2 5.3-4.5 0-1.3-0.2-2.8-0.5-3.9l-31.3-0.1c-0.3 1.5-0.4 3.1-0.4 4.2 0 1.2 0.1 2.7 0.4 4.2h6.5c1 0 3.1 0 4 0zm-16.1-43.7l-3.3-0.1c-3.9 0-5.6 1.7-5.7 6.1v7.7c0 4.4 0.2 12.8 0.7 18.7l-0.3 0.1c-0.8-2.3-2.3-5.9-3.8-9.6l-9.7-22.6c-2.3-0.3-4.6-0.4-5.9-0.4-1.2 0-4.4 0.2-6 0.5l-0.1 43c1.5 0.3 3.6 0.4 4.8 0.4 1.2 0 2.9 0 4.6-0.4v-12.5c0-5.3-0.2-13.6-0.7-18.9l0.2-0.1c0.9 2.4 2.2 5.7 3.6 8.9l9.8 22.7c2.2 0.3 4.6 0.4 5.9 0.4 1.3 0 4.5-0.2 6.1-0.5l0.2-43zm-41.1 35.2l-14.6-0.1c-1.8 0-3.3 0.1-4.7 0.1 0-1.7 0.1-2.9 0.1-4.6v-4.8h4.3l9.6 0.1c0.4-1.3 0.6-3 0.6-4.1 0-1.1-0.1-2.9-0.5-4.1l-9.7-0.1c-0.9 0-2.6 0-4.3 0.1v-4.4c0-1.7 0-2.9 0-4.6h4.4l12.8 0.1c0.6-1.5 0.9-3.4 1-4.5 0-1.1-0.1-2.5-0.4-4l-27.2-0.1-0.5 0.4-0.2 37.1c0 3.6 2.2 5.9 5.8 5.9h16.8c3.7 0.1 6-1.6 6.5-4.8 0.2-1.3 0.2-2.8 0.2-3.6zm-36.3-13.5c0.1-7.3-1-14.1-7-18.8-2.9-2.3-8-3.2-11.5-3.2-5.5 0-10.5 0-15.9 0.2l-0.5 0.4-0.2 42.5 0.5 0.5c5.5 0.1 10.4 0.3 15.9 0.3 3.5 0 8.7-0.8 11.6-3.1 6-4.6 7.1-11.4 7.1-18.8zm-10.3 0c-0.1 6.4-1.2 14-8.4 14-2.2 0-4 0-6.3 0l0.1-28.2c2.3 0.1 4.1 0.1 6.3 0.1 7.3 0 8.3 7.7 8.3 14.1zm-33.5-21.7c-1.7-0.4-4-0.4-5.2-0.4-1.4 0-3.3 0-5 0.3l-0.1 27.4c0 5.7-1.9 8.7-7 8.7-5.1-0.1-6.9-3-6.9-8.8l0.1-21.3c0-4.6-2.1-6.5-6-6.5h-3.7l-0.4 0.4-0.2 27.2c0 10.7 6.2 17 17.1 17 10.9 0.1 17.1-6.1 17.1-16.8zm-59.6 42.9c1.7 0.3 3.6 0.4 5 0.4 1.4 0 3.3 0 5.1-0.4l0.1-30.1c0-1.7 0-2.9 0-4.7 1 0 3.1 0.1 4 0.1h1.9c3.6 0 5.3-1.2 5.3-4.5 0-1.3-0.2-2.9-0.5-3.9l-31.3-0.1c-0.3 1.5-0.4 3.1-0.4 4.2 0 1.2 0.1 2.7 0.4 4.2h6.5c0.9 0 3.1 0 4 0zm-45.3-4c4.6 3 10.8 4.8 15.9 4.8 11.1 0.1 16.7-5.8 16.7-13.5 0.1-5.5-3.4-9.8-9.5-12.5l-7.5-3.3c-2.8-1.1-3.7-2.3-3.7-4 0-1.6 1.4-3.7 5-3.7 3.4 0 8.2 1.6 11.4 3.2 2-1.8 3.2-4.7 3.4-7.6-3.2-1.6-8.8-3.6-14.8-3.7-8.5 0-15.4 5.3-15.4 13.2 0 6 3.8 9.3 9 11.7l7.4 3.2c3.5 1.5 4 3.4 4 4.7 0 2.1-1.5 4.2-5.2 4.1-4.5 0-9.2-2-12.8-4.1-1.9 1.7-3.7 4.7-3.9 7.5zm-13.9-28.8c-1.2 2.9-2.4 6.3-3.2 9.4h-0.4c-0.8-3.4-1.8-6.4-2.8-9l-3-7.6c-1.2-2.8-2.5-4-5.3-4-2.2 0-4.4 0.7-6.2 1.7l12.1 28.4v13.6c1.6 0.3 3.9 0.4 5.1 0.4 1.3 0 3.3-0.1 5-0.4v-13.3l12.4-28.9-0.4-0.5c-1.4-0.5-3.2-0.8-5-0.8-1.3 0-2.7 0.1-4.1 0.4zm-53.8-11.1l-0.4 0.5-0.2 42.5 0.4 0.4c5.5 0.2 10.7 0.3 15.6 0.4 9.7 0 15.9-3.9 15.9-12.7 0-5.1-3.4-9.7-7.6-11.1 3.2-1.3 5.7-4.8 5.7-8.6 0-8-6-11.5-14.8-11.6-4.5 0-9.5 0.1-14.6 0.2zm14.7 24.4c5.1 0 6.4 3.4 6.4 6.2 0 2.6-1.2 6-6.4 6-1.3 0-3.3 0-5.3 0.1l0.1-12.4zm-5.2-17.4c1.6 0.1 3.4 0.1 4.6 0.1 4.2 0 5.4 2.6 5.4 5 0 2.5-1.3 5.1-5.6 5.1h-4.4zm-38.7 14.4c1-3.5 2.5-8.6 3.1-12.1h0.4c1.1 4.2 2.4 9.4 3.4 13l1.1 4c-0.8 0-1.7-0.1-2.3-0.1h-4.6c-0.7 0-1.7 0-2.5 0zm419.3 27.1c2.1 2.6 3.6 4.5 5.8 7.1 1 1.1 2 2.1 3 3.2 0.5 0.6 0.8 1.4 1.4 2 0.7 0.6 1.5 0.9 2.2 1.2 1.1 0.6 2.2 1.2 3.4 1.5 0.6 0.2 1.6 0.1 2.2 0.2 1.4 0.4 1.7 0.8 2.7 1.3 0 0 4.4 1.3 6.8 1.7 3.5 0.4 6.6 1.3 9.9 2.3 2.3 1.4 4.7 2.6 6.3 4.8 1.2 1.6 2.4 3.3 3.5 4.9 0.8 1.1 2.2 2.7 3.9 2.1 0.9-0.2 1.1-0.7 1.2-1.6 0.1-1.6-0.7-3.1-1.3-4.5-0.4-1.3-1-2.5-1.5-3.7-0.7-1.2-0.9-1.1-1.4-2.4-0.4-0.8-0.8-1.7-0.9-2.6-0.2-1 0-1.7-0.4-2.6-1.2-3.4-4.9-1.7-6.9-0.4-1.4-1-2.7-2.3-4.1-3.3 0 0-4.1-2.5-5.6-3.3-3-1.6-4.2-1.8-7.3-2-0.8-0.1-1.6 0-2.3-0.3-0.6-0.3-1.1-0.8-1.4-1.4-0.7-1.5-1.3-3-1.9-4.6l-2-5.4 5.3-1.4 6.6-2 3.1-1.3 5.9-1.2-5.5-4.9-10-11.2-6.1-8.3c0 0-2.7-4.1-2.9-5.1-1-4.9-1.2-9.1 0.4-13.6l4.5-2.1 11.6-2.3c0 0 3.9-1 4.9-1.4 0.9-0.3 6-3.4 6-3.4 2.8-2 5.5-4.1 8.2-6.2q1.9-1.4 3.8-3c2-1.8 3.1-3.2 5.2-4.8 0.9-0.7 1.9-0.7 2.8-1.4 0.7-0.6 1.5-1.4 1.8-2.4 0.2-0.6-0.1-1.4-0.4-2-1.4-2.8-3-2.8-5.5-2.1-0.5 0.1-1.1-0.2-1.5 0-0.6 0.3-0.9 0.9-1.2 1.4-0.3 0.6-0.4 1.3-0.6 1.9-0.3 0.8-0.6 1.6-1 2.3-0.5 0.9-1 1.9-1.8 2.7-1.4 1.3-2.5 1.9-4.2 2.8-1.5 0.9-3.4 1.2-5 2-1.5 0.8-2.7 2.1-4.2 2.8l-2.5 1c-4.4 0.5-7.6 1.7-11.6 3.4-1.2-0.3-2.3-0.8-3.5-1.1-2.5-0.6-4.4-0.6-7-0.5l-2.5-2.4-2-1.8 1.4-3.1c4.8 0.3 8.7-2.8 11.5-6.4 0.9-1.3 2-2.9 3-4.7 0.5 0.2 0.9 0.3 1.3 0.6 0.4 0.3 0.5 0.9 0.7 1.4q0.4 1.1 0.6 2.3c0.3 1.2 0.5 2.5 0.7 3.8 0.9-0.4 1.9-0.8 2.8-1.3 1.1-0.7 2.1-1.5 3.1-2.2q-0.5-1.1-1.1-2.2c0 0-0.6-1.6-2-2.4-2.1-1.3-3-1.6-5.1-1.8 0.9-1.6 1.6-3.3 2.1-4.7 1-2.9 0.1-7.8-1.6-10.3-2-2.9-5.6-5.1-8.8-5.8-6.7-1.5-10.8 1.8-14.4 6.6-1-1.1-3.1-2.2-3.1-2.2-0.9-0.3-1.8-0.8-2.7-1-1-0.1-2-0.1-2.9 0.2-0.9 0.2-2 0.2-2.7 0.7q-1.1 0.7-2.1 1.5 1.2 2.3 2.5 4.7 0.4 0.6 0.9 1.3c0.8-0.8 1.5-1.7 2.4-2.3 1.5-1.1 2.8-1 4.5-0.7q0.8 0.2 1.5 0.4c-1.2 1.9-2 3.9-2.6 6-1.6 5.7-0.5 10.2 2.5 15.1l-2.2 5.3-3.3 0.8-2.9-2.4-5-2.4c-1-0.4-2-0.6-2.9-1.1-0.9-0.4-2-0.8-2.7-1.5-1.4-1.4-2.4-3.2-3.7-4.8-1.2-1.6-2.6-3.1-3.9-4.7-0.9-1.2-1.7-2.4-2.5-3.6-0.6-0.9-1.4-1.7-1.8-2.7-0.3-1-0.3-2-0.3-3 0-0.7 0.2-1.2 0-1.9-0.3-0.9-0.9-1.8-1.7-2.3-1-0.5-2.1-0.2-3.1 0.1-1.2 0.3-2.3 1.2-3.2 2-0.6 0.6-1.2 1.4-1.2 2.2 0 1.2 0.6 2.2 1.2 3.2 0.6 1 1.5 1.9 2.3 2.8 0.8 0.8 1.9 1.3 2.5 2.2 1.8 2.5 3.2 5.2 4.8 7.8 1.3 2.1 2.6 4.1 4.1 6.1 0.6 0.9 1.2 1.8 2 2.5 0.9 0.7 2 1.1 2.9 1.8l4.5 3.5 3.3 3.1 2.3 2.3-1.8 10.3c0 0-0.7 6.8-0.3 9.6 0.5 2.7 0.9 7.2 0.9 7.2l-2.8 14-0.5 12.3-0.6 9.6h2.6z"/><path fill-rule="evenodd" class="a" d="m928.4 143.6q2.3 1.3 4.8 1.8 2.5 0.5 5.1 0.3 2.5-0.2 4.8-1.1 2.3-0.9 4.2-2.5 1.9-1.6 3.2-3.9 1.4-2.5 1.5-4.9 0-2.4-0.9-4.6-1-2.2-2.7-4.3-1.8-2.1-4-3.9-2.3-1.9-4.8-3.5l5.7-8.4 14.8 9.6 3.6-5.4-18.6-10.4-12.4 17.8q1.6 1 3.2 2.1 1.6 1.1 3.1 2.4 1.5 1.3 2.6 2.7 1.2 1.4 1.8 3 0.6 1.6 0.5 3.3-0.1 1.8-1.1 3.6-1.4 2.5-3.3 3.6-1.9 1.1-4.1 1-2.2-0.2-4.6-1.5-1.6-0.9-2.9-2.1-1.2-1.2-2.2-2.6-1-1.4-1.9-3.1l-4.3 3.8q1 1.1 2.2 2.4 1.3 1.2 2.9 2.4 1.7 1.2 3.8 2.4zm-64.2 77.8c0.5 2.6 0.9 4.7 1.4 7.4 0.3 1.4 0.8 2.8 1.1 4.2 0.1 0.8 0 1.6 0.3 2.4 0.3 0.7 0.8 1.4 1.3 2.1 0.7 1 1.3 2 2.2 2.8 0.4 0.5 1.3 0.8 1.8 1.2 1 0.9 1.1 1.5 1.7 2.4 0 0 3.2 3.2 5.1 4.6 2.8 2 5 4.2 7.4 6.6 1.4 2.3 2.8 4.4 3.2 7.1 0.2 1.9 0.5 3.9 0.7 5.9 0.1 1.3 0.6 3.2 2.4 3.6 0.8 0.1 1.2-0.2 1.7-0.9 0.8-1.2 0.8-2.9 1.1-4.4 0.2-1.3 0.2-2.6 0.3-3.9 0-1.3-0.2-1.4 0-2.7 0.1-0.9 0.1-1.9 0.4-2.7 0.3-0.9 0.8-1.5 0.9-2.4 0.6-3.5-3.4-3.7-5.7-3.6-0.8-1.5-1.3-3.2-2.1-4.7 0 0-2.3-4.1-3.2-5.4-1.8-2.9-2.7-3.6-5.4-5.2-0.6-0.4-1.3-0.8-1.8-1.3-0.3-0.5-0.5-1.2-0.5-1.8 0-1.7 0.3-3.2 0.5-4.9l0.4-2.8 0.3-3.4-15.8-3.8c0.5 1.3 0.7 2.6 0.3 3.6zm-17.1-129.1c-7.1-4.9-13.1-11.5-17.8-18.3q-4.1 15.6-8.3 31.3c5 8.1 10.8 13.7 17.9 18.4 5.6-1.1 9.2-2 13.9-4 2.9-10.8 5.8-20.9 8.5-31.4-3.9 2.1-9.2 3.6-14.2 4z"/><path class="f" d="m846.9 93.5c-4.9-5.8-8.9-11.7-11.2-18.6m11.6 18.3c-3.3-4.7-4.9-8.7-5.5-14.9m-7.8 112.8c8 0 14.4 6.5 14.4 14.5 0 8-6.4 14.5-14.4 14.5-8 0-14.5-6.5-14.5-14.5 0-8 6.5-14.5 14.5-14.5z"/><path class="a" d="m836.3 205.8q0.7 0.2 1.3 1 0.6 0.7 1.3 2l2.1 4.2h-2.2l-2-3.9q-0.8-1.6-1.5-2.1-0.7-0.5-1.9-0.5h-2.3v6.5h-2v-15.3h4.6q2.7 0 4 1.1 1.2 1.1 1.2 3.3 0 1.4-0.6 2.4-0.7 1-2 1.3zm-2.6-6.4h-2.6v5.4h2.6q1.5 0 2.3-0.7 0.8-0.7 0.8-2 0-1.3-0.8-2-0.8-0.7-2.3-0.7z"/><path fill-rule="evenodd" class="g" d="m377.6 501.5v140.6"/><path fill-rule="evenodd" class="a" d="m249.1 529.9h-1.8l-13.2-8-0.1 26.5 13.2 8v2.7l-45.1-0.2v-2.7l13.3-7.9 0.1-29.2-13.2-8v-2.6h13.3l18.5 0.1 15.9 9.6 16-9.5q25.9 0.2 51.8 0.3l5.2 13.3-2.4 1.2c-2.3-2.9-6.7-7.3-21.6-7.5-5.6-0.1-8.9-0.1-14.5-0.1l-0.1 32.7c0.8 0.5 1.7 1.1 2.5 1.6 7.6 3.8 17.4 1.2 18.2-7.5 0.6-6.8-3.8-12.9-15.3-11.6v-3.2c3.4-1.5 7.8-2.3 11.8-2.4 12.1-0.4 23.9 4.5 23.7 17.1-0.2 12.6-12.2 16.8-26 16.7-15.6-0.1-31.2-0.1-46.8-0.2v-2.6l13.3-7.9 0.1-26.6-13.3 7.9h-1.7l10.4-7.9h-1.9l-8.6 6.4-0.8 0.7-0.8-0.7-8.6-6.5h-1.9zm-68.9 72.3l0.5-0.2c0.5-0.1 0.9-0.4 0.9-1v-3.2l0.1-5.7c0-0.7-0.5-0.9-0.9-1l-0.6-0.2c0-0.2 0-0.3 0.1-0.5l9.6 0.1-0.1 2.6c-0.1 0-0.3 0.1-0.5 0.1-0.2-1.1-0.9-1.5-1.5-1.5l-3.3-0.2v4.1h1.1c2.7 0.1 5.3 0.5 5.3 3.5 0 2.9-2.6 3.6-5.3 3.6h-5.4c0-0.2 0-0.3 0-0.5zm5.2-0.6c1.8 0 2.4-1.2 2.4-2.5 0-1.3-0.6-2.4-2.4-2.4h-0.9v1 3.9zm6.4 0.6l0.6-0.2c0.4-0.1 0.8-0.4 0.8-1l0.1-3.2v-5.6c0-0.5-0.2-0.8-0.7-1l-0.8-0.2q0-0.3 0-0.5h9.6v2.5c-0.2 0-0.4 0.1-0.5 0.1-0.2-1-0.9-1.4-1.6-1.4l-3.2-0.2v4.6l4.4-0.1v1.2l-4.4-0.1v0.8l0.1 3.8 2.4-0.1c1.2 0 2.1-0.3 2.8-1.7l0.6 0.3-0.5 2.6-9.7-0.1c0-0.1 0-0.4 0-0.5zm10.6-1.6c1-0.2 2.2-0.5 2.6-1.2 0.7-0.9 1.1-5.1 1.1-7.2 0-0.6-0.2-0.8-0.7-1l-0.7-0.2q0-0.2 0.1-0.5l9.8 0.1c0.1 0.1 0.1 0.3 0 0.5l-0.9 0.3c-0.3 0.1-0.6 0.3-0.6 0.8v5.8 3.1c0 0.5 0.2 0.8 0.6 0.9l0.9 0.3c0 0.2 0 0.3 0 0.5h-5.7q-0.1-0.3-0.1-0.5l0.9-0.3c0.3-0.1 0.5-0.4 0.5-0.8l0.1-3.3v-6.3h-2.9c-0.2 2.7-0.4 7.4-1.4 9.2-0.4 0.9-1.1 1.8-2.6 2.3zm13.3-3.3c0-3.8 3-6.9 6.8-6.9 4.3 0 6 2.3 6 5.8 0 3.7-2.7 6.9-6.8 6.9-4.1-0.1-6.1-2.1-6-5.8zm9.6-0.6c0.1-3.2-1.1-5.1-3.2-5.1-2.1 0-3.3 1.8-3.3 5.1 0 3.4 1.3 5.1 3.2 5.1 2.2 0 3.3-1.7 3.3-5.1zm3.6 4c1-0.2 2.1-0.5 2.6-1.2 0.7-0.9 1-5.1 1-7.2 0-0.6-0.1-0.8-0.6-1l-0.7-0.2q0-0.2 0-0.5l9.9 0.1c0 0.1 0 0.3 0 0.5l-1 0.3c-0.3 0.1-0.5 0.3-0.5 0.8v5.8 3.1c0 0.6 0.2 0.8 0.6 0.9l0.9 0.3c0 0.2 0 0.3-0.1 0.5h-5.7q0-0.3 0-0.5l0.8-0.3c0.4-0.1 0.6-0.4 0.6-0.8l0.1-3.3v-6.3h-3c-0.2 2.7-0.3 7.4-1.3 9.2-0.5 1-1.2 1.8-2.6 2.3zm13 1.7l0.8-0.2c0.4-0.1 0.7-0.5 0.7-1.1v-3l0.1-5.8c0-0.6-0.4-0.8-0.8-0.9l-0.6-0.2q-0.1-0.2 0-0.5h5.5c0.1 0.2 0.1 0.3 0.1 0.5l-0.8 0.2c-0.4 0.2-0.6 0.5-0.6 1.1v6l5.3-5v-1.1c0-0.6-0.3-0.7-0.6-0.9l-0.8-0.3q0-0.2 0-0.5l5.7 0.1c0 0.2 0 0.2 0 0.5l-1 0.3c-0.3 0.1-0.5 0.3-0.5 0.8v5.7 3.1c0 0.6 0.2 0.9 0.6 1l0.9 0.3c0 0.2 0 0.3-0.1 0.5h-5.7q0-0.3 0-0.6l0.8-0.2c0.4-0.1 0.6-0.4 0.6-0.8l0.1-3.3v-3.1l-5.3 4.9v1.4c0 0.4 0.2 0.8 0.8 1l0.6 0.2c0 0.2 0 0.2 0 0.5l-5.7-0.1c-0.1-0.2-0.1-0.3-0.1-0.5zm14.8 0.1l0.8-0.2c0.4-0.2 0.7-0.5 0.7-1.1l0.1-3.1v-5.8c0-0.5-0.4-0.7-0.8-0.8l-0.6-0.2q0-0.3 0-0.5h13.6c0 0.3 0 0.3 0 0.5l-1 0.3c-0.3 0.2-0.5 0.4-0.5 0.9v5.7 3.1c0 0.6 0.2 0.9 0.5 1l1 0.3c0 0.2-0.1 0.3-0.1 0.5l-5.7-0.1q0-0.2 0-0.5l0.8-0.3c0.3-0.1 0.6-0.3 0.6-0.7v-3.3l0.1-6.3-5.1-0.1v6.4 3.2c0 0.4 0.2 0.7 0.8 0.9l0.6 0.2c0 0.2 0 0.3 0 0.5h-5.7c0-0.2-0.1-0.3-0.1-0.5zm14.6 0l0.6-0.2c0.5-0.1 0.9-0.4 0.9-1v-3.1-5.6c0-0.6-0.2-0.9-0.7-1l-0.7-0.3q-0.1-0.3 0-0.5l9.5 0.1v2.4c-0.1 0.1-0.3 0.1-0.5 0.2-0.2-1-0.9-1.5-1.6-1.5l-3.1-0.1v4.5l4.3-0.1v1.3l-4.3-0.1v0.7 3.8h2.5c1.2-0.1 2-0.4 2.8-1.7l0.5 0.2-0.5 2.6h-9.7c0-0.2 0-0.5 0-0.6zm24.3 3.7c-0.2-0.7-0.4-3-2.4-3l-10.7-0.1c0-0.2-0.1-0.3-0.1-0.5l0.8-0.2c0.4-0.1 0.7-0.5 0.7-1.1l0.1-3.1v-5.8c0-0.5-0.4-0.7-0.8-0.8l-0.6-0.2q0-0.3 0-0.5h5.6c0 0.1 0 0.3 0 0.5l-0.8 0.2c-0.4 0.2-0.6 0.5-0.6 1.1v5.6 3.8h4.7l0.1-3.8v-5.7c0-0.6-0.2-0.8-0.6-0.9l-0.8-0.3q0-0.2 0.1-0.5h5.6c0.1 0.3 0.1 0.3 0.1 0.5l-1 0.4c-0.3 0.1-0.6 0.3-0.6 0.8v5.7 3.8h1.9v4.1c-0.2 0-0.6 0.1-0.7 0zm12.7-2.9c-1 0-2.4-0.1-3.3-1.2l-3.5-4.2v0.4l0.1 3.2c0 0.5 0.1 0.8 0.5 0.9l0.6 0.3c0 0.2 0 0.3-0.1 0.5h-5.4c0-0.2 0-0.3 0-0.5l0.7-0.3c0.5-0.1 0.7-0.3 0.7-1l0.1-3.1v-5.6c0-0.6-0.2-0.9-0.6-1l-0.9-0.3c0-0.1 0-0.3 0.1-0.5l5.4 0.1q0 0.2 0 0.4l-0.5 0.3c-0.5 0.2-0.6 0.4-0.6 1l-0.1 4 3.3-3.1c0.2-0.2 0.7-0.7 0.7-1.1 0-0.4-0.3-0.6-0.7-0.8l-0.5-0.3q0-0.2 0-0.4h4.7v0.5l-5.6 4.8 2.7 3.2c0.9 1.1 2.1 2.3 3.3 3.2l-0.3 0.6q-0.3 0-0.8 0zm1.8-5.6c0-3.8 3-6.9 6.8-6.9 4.4 0.1 6.1 2.3 6.1 5.8-0.1 3.8-2.7 6.9-6.8 6.9-4.2 0-6.1-2.1-6.1-5.8zm9.7-0.6c0-3.2-1.1-5-3.2-5-2.2-0.1-3.3 1.7-3.3 5 0 3.4 1.3 5.1 3.1 5.1 2.3 0 3.4-1.7 3.4-5.1zm4 5.7l0.8-0.3c0.4-0.1 0.7-0.3 0.7-1l0.1-3.1v-5.4c0-0.8-0.2-1-0.7-1.2l-0.8-0.2c0-0.3 0-0.4 0-0.5h9.6v3c-0.2 0.1-0.5 0.1-0.7 0.1-0.2-1.2-0.8-1.9-1.6-1.9l-3-0.2v6.4 3c0 0.5 0.2 0.8 0.5 0.9l1.8 0.4c0 0.2 0 0.4-0.1 0.5h-6.5c-0.1-0.2-0.1-0.4-0.1-0.5zm10.6-5c0-3.8 3.1-6.9 6.8-6.8 4.4 0 6.1 2.2 6.1 5.8-0.1 3.7-2.7 6.8-6.8 6.8-4.2 0-6.1-2.1-6.1-5.8zm9.7-0.5c0-3.3-1.1-5.1-3.2-5.1-2.2 0-3.3 1.7-3.3 5 0 3.4 1.3 5.1 3.1 5.1 2.3 0 3.4-1.7 3.4-5zm-129.2-24.5l-0.2 1.1-1.1 7.2c0 0.3 0 0.6 0.2 0.6l1.5 0.5q0.1 0.3 0 0.6l-4.2-0.1c0-0.2 0-0.3 0-0.4l0.6-0.3c0.4-0.3 0.8-0.8 0.9-1.4l1.4-8.4c0.1-0.4-0.2-0.8-0.5-0.9l-1-0.3c0-0.2 0-0.3 0-0.5h3.7l2.3 7 0.9 2.8h0.1l0.9-2.6 2.7-7.1h3.4c0 0.2 0.1 0.2 0 0.4l-0.8 0.3c-0.4 0.1-0.7 0.5-0.6 1.3l1.2 8.5c0 0.4 0.3 0.7 0.5 0.8l0.8 0.4q0 0.2 0 0.5h-4.8c0-0.3 0-0.3 0-0.5l0.7-0.2c0.5-0.2 0.6-0.7 0.6-1.3q0-0.3 0-0.6l-0.7-6.1-0.1-1.1h-0.1l-3.5 9.7-1.4 0.4zm13.6 9.5l1-0.3c0.4-0.1 0.7-0.5 0.7-1v-2.8l0.1-6c0-0.4-0.2-0.7-0.5-0.8l-1.1-0.4c-0.1-0.1 0-0.2 0-0.4h8.8v2.5c-0.2 0.1-0.5 0-0.7 0-0.2-1-0.6-1.4-1.4-1.4l-3.3-0.2v4.8l4.5-0.1v1.1l-4.5-0.1v1l0.1 3.7h3c1.2 0 2-0.8 2.3-1.7l0.6 0.1-0.4 2.6-9.2-0.1c0-0.2 0-0.3 0-0.5zm12.9 0.1l1.2-0.4c0.4-0.1 0.6-0.6 0.7-1.1v-2.4l0.1-6.9h-2.5c-0.8 0-1.2 0.8-1.4 1.8-0.2 0-0.3 0-0.6-0.1v-2.6h10.8v2.7c-0.3 0-0.3 0-0.6 0-0.2-1-0.6-1.7-1.5-1.7l-2.4-0.1v6.9l0.1 2.8c0 0.5 0.1 0.7 0.4 0.8l1.4 0.3q0 0.2-0.1 0.5h-5.5c-0.1-0.2-0.1-0.3-0.1-0.5zm9.1-5.1c0-3.7 2.7-6.8 6.3-6.7 3.9 0 5.8 2.3 5.8 5.8 0 3.6-2.4 6.8-6.3 6.8-3.8 0-5.8-2.2-5.8-5.9zm9.9-0.4c0-2.9-1.1-5.3-3.8-5.3-2.8 0-3.9 2.3-3.9 5.2 0 2.9 1.1 5.3 3.7 5.3 2.9 0 4-2.3 4-5.2zm3.2 5.2h1.3c0.7-1 1.3-2.8 1.6-4 0.5-2.1 0.7-4.3 0.8-5.6 0-0.4-0.2-0.8-0.5-0.9l-0.9-0.3q0-0.2 0-0.5h9c0 0.3 0 0.3 0 0.5l-0.9 0.3c-0.3 0.1-0.5 0.2-0.5 0.6v6.2l0.1 3.7h1.7v3.9c-0.2 0.1-0.5 0.1-0.6 0.1-0.2-0.8-0.6-3.1-2-3.1h-6.2c-2.1 0-2.1 2.3-2.3 3-0.1 0.1-0.5 0.1-0.6 0.1zm7.9 0l0.1-3.7v-6.7h-3.2l-0.3 3.1c-0.1 1.2-0.3 2.6-0.7 4-0.2 1.1-0.6 2.3-1.1 3.3zm4.9 0.4l0.9-0.3c0.4-0.1 0.7-0.7 0.7-1.2l0.1-2.6v-5.8c0-0.5-0.2-0.9-0.6-1l-1-0.3c0-0.2 0-0.3 0-0.5h4.8c0.1 0.2 0.1 0.3 0.1 0.5l-0.9 0.2c-0.4 0.2-0.5 0.3-0.6 0.8v6.8l6.2-5.8v-0.9c0-0.5-0.2-0.7-0.7-0.8l-0.8-0.3c0-0.2 0-0.3 0.1-0.5h4.7c0 0.3 0 0.3 0 0.6l-0.9 0.2c-0.4 0.1-0.5 0.2-0.5 0.7l-0.1 6.2 0.1 2.9q0 0.7 0.4 0.8l1.2 0.3c0 0.2 0 0.4-0.1 0.6h-5c0-0.3 0-0.4 0-0.6l0.7-0.2c0.6-0.2 0.8-0.8 0.8-1.2l0.1-2.7v-3.8l-6.2 5.8 0.1 1c0 0.4 0.1 0.6 0.5 0.7l1.3 0.4q0 0.2-0.1 0.5h-5.2c-0.1-0.2-0.1-0.3-0.1-0.5zm14.2 0.1l1-0.3c0.4-0.2 0.6-0.6 0.6-1.1l0.1-2.7v-5.8c0-0.5-0.2-0.9-0.5-1.1l-1-0.3c0-0.1 0-0.3 0-0.4h4.7c0 0.2 0.1 0.2 0 0.4l-0.7 0.3c-0.5 0.2-0.6 0.6-0.6 1.1v5.7 3.1c0 0.5 0.1 0.6 0.3 0.7l1 0.3c0 0.2 0 0.4-0.1 0.6h-4.8c0-0.2 0-0.3 0-0.5zm7.9-0.6l-4.2-4.8v-0.3l4-4c0.2-0.2 0.5-0.5 0.5-0.8 0-0.2-0.2-0.4-0.5-0.5l-0.7-0.2q0-0.2 0.1-0.5h3.8v0.5l-5.4 5 3.6 4.1c0.9 1 1.7 1.7 2.5 2.3l-0.1 0.5c-1.1 0-2.6-0.2-3.6-1.3z"/><path fill-rule="evenodd" class="a" d="m303.5 583.2h3.7q0-0.3 0-0.5l-0.8-0.3c-0.6-0.2-0.9-0.7-0.7-1.2l1.1-2.9h3.8l0.8 2.8q0.1 0.2 0.1 0.5c0 0.3-0.1 0.7-0.5 0.8l-1.1 0.3c0 0.2 0.1 0.2 0.1 0.5h4.6q0-0.3 0-0.5l-0.2-0.2c-0.4-0.3-0.6-0.7-0.8-1.2l-3.6-10.4-1.3 0.5-4.2 10.1c-0.2 0.3-0.4 0.6-0.7 0.9l-0.4 0.3c0 0.1 0 0.3 0.1 0.5zm3.7-5.8l1.2-3.2 0.5-1.3h0.1l0.3 1.4 1 3.1zm-18.1 57.7l-3.9-9.1 3.9-9.1h-50.7l4.6 9.1-4.6 9.1z"/><path fill-rule="evenodd" class="f" d="m238.3 635.1l4.7-9.1-4.7-9.1h50.8l-3.9 9.1 3.9 9.1z"/><path class="a" d="m450.4 543v-17.5h3.5l4.4 11.9 4.5-11.9h3.6v17.5h-2.3v-15.4l-4.6 12h-2.3l-4.5-12v15.4zm21 0v-17.5h11v2h-8.7v5.2h8.4v2h-8.4v6.3h8.9v2zm12.6-15.5v-2h14.8v2h-6.2v15.5h-2.4v-15.5zm24.5-0.4q-2.5 0-4.1 1.9-1.5 2-1.5 5.3 0 3.3 1.5 5.2 1.6 1.9 4.1 1.9 2.6 0 4.1-1.9 1.5-1.9 1.5-5.2 0-3.3-1.5-5.3-1.5-1.9-4.1-1.9zm0-1.9q3.7 0 5.9 2.5 2.2 2.4 2.2 6.6 0 4.1-2.2 6.6-2.2 2.4-5.9 2.4-3.7 0-5.9-2.4-2.2-2.5-2.2-6.6 0-4.2 2.2-6.6 2.2-2.5 5.9-2.5zm14.1 15.8h7.7v-13.5h-5.7v2.5q0 5.8-1.3 9.7-0.3 0.8-0.7 1.3zm-4.3 0h0.8q1.6-0.7 2-2.1 1.1-3.6 1.1-10.1v-3.3h10.5v15.5h1.9v5.8h-1.9v-3.8h-12.4v3.8h-2zm34.3-6.4h-3.8v6.4h3.8q1.9 0 2.8-0.8 1-0.8 1-2.4 0-1.6-1-2.4-0.9-0.8-2.8-0.8zm-0.3-7.2h-3.5v5.3h3.5q1.7 0 2.6-0.7 0.8-0.6 0.8-2 0-1.3-0.8-1.9-0.9-0.7-2.6-0.7zm-5.9 15.6v-17.5h6.1q2.7 0 4.2 1.1 1.4 1.1 1.4 3.2 0 1.6-0.7 2.5-0.8 1-2.2 1.2 1.7 0.4 2.7 1.6 0.9 1.2 0.9 3 0 2.3-1.5 3.6-1.6 1.3-4.6 1.3zm21.4-15.6h-3v6.6h3q1.6 0 2.5-0.9 0.9-0.8 0.9-2.4 0-1.6-0.9-2.4-0.9-0.9-2.5-0.9zm-5.4 15.6v-17.5h5.4q2.9 0 4.4 1.3 1.5 1.3 1.5 3.9 0 2.6-1.5 3.9-1.5 1.3-4.4 1.3h-3v7.1zm22.1-15.9q-2.6 0-4.1 1.9-1.5 1.9-1.5 5.2 0 3.3 1.5 5.3 1.5 1.9 4.1 1.9 2.6 0 4.1-1.9 1.5-2 1.5-5.3 0-3.3-1.5-5.2-1.5-1.9-4.1-1.9zm0-2q3.7 0 5.9 2.5 2.2 2.5 2.2 6.6 0 4.2-2.2 6.6-2.2 2.5-5.9 2.5-3.7 0-5.9-2.5-2.2-2.4-2.2-6.6 0-4.1 2.2-6.6 2.2-2.5 5.9-2.5zm21.3 9v-8.6h2.3v8.6l8-8.6h2.9l-6.4 6.9 6.8 10.6h-2.5l-5.7-9.1-3.1 3.3v5.8h-2.3v-5.8l-3.1-3.3-5.7 9.1h-2.5l6.8-10.6-6.4-6.9h2.9zm18.7 6.8h7.7v-13.5h-5.6v2.5q0 5.8-1.4 9.7-0.2 0.8-0.7 1.3zm-4.3 0h0.9q1.5-0.7 2-2.1 1.1-3.6 1.1-10.1v-3.3h10.4v15.5h2v5.8h-2v-3.8h-12.4v3.8h-2zm20.2 2v-17.5h11.1v2h-8.7v5.1h8.3v2h-8.3v6.4h8.9v2zm15 0v-17.5h2.3v7.1h8.6v-7.1h2.4v17.5h-2.4v-8.4h-8.6v8.4zm18 0v-17.5h2.4v7.1h8.6v-7.1h2.4v17.5h-2.4v-8.4h-8.6v8.4zm25.1-15.9q-2.6 0-4.1 1.9-1.5 1.9-1.5 5.2 0 3.3 1.5 5.3 1.5 1.9 4.1 1.9 2.6 0 4.1-1.9 1.5-2 1.5-5.3 0-3.3-1.5-5.2-1.5-1.9-4.1-1.9zm0-2q3.7 0 5.9 2.5 2.2 2.5 2.2 6.6 0 4.2-2.2 6.6-2.2 2.5-5.9 2.5-3.7 0-5.9-2.5-2.2-2.4-2.2-6.6 0-4.1 2.2-6.6 2.2-2.5 5.9-2.5zm22 0.4h3.1v17.5h-2.3v-14.7l-7.7 14.7h-3.2v-17.5h2.3v14.6zm-7.2-4.8h1.4q0.1 0.7 0.7 1 0.6 0.3 1.6 0.3 0.9 0 1.5-0.3 0.6-0.3 0.7-1h1.4q-0.1 1.4-1 2.1-1 0.8-2.6 0.8-1.7 0-2.7-0.8-0.9-0.7-1-2.1zm35 4.8l-6.5 15.4q-0.3 0.6-0.7 1-0.9 1.1-3.8 1.1h-0.9v-2h0.7q1.4 0 1.9-0.3 0.4-0.2 0.6-0.7l0.5-1.2-5.6-13.3h2.5l4.4 10.3 4.4-10.3zm16.2 1.3v2.5q-1.2-1.1-2.6-1.6-1.3-0.6-2.8-0.6-3 0-4.6 1.9-1.6 1.8-1.6 5.3 0 3.4 1.6 5.3 1.6 1.8 4.6 1.8 1.5 0 2.8-0.6 1.4-0.5 2.6-1.6v2.4q-1.2 0.9-2.6 1.3-1.4 0.4-3 0.4-3.9 0-6.2-2.4-2.3-2.4-2.3-6.6 0-4.3 2.3-6.7 2.3-2.4 6.2-2.4 1.6 0 3 0.4 1.4 0.4 2.6 1.2zm2.9-1.3h13.3v17.5h-2.3v-15.5h-8.6v15.5h-2.4zm18 17.5v-17.5h11.1v2h-8.7v5.2h8.3v2h-8.3v6.3h8.9v2zm22.1-8.4h-3.8v6.4h3.8q1.9 0 2.9-0.7 0.9-0.8 0.9-2.5 0-1.6-0.9-2.4-1-0.8-2.9-0.8zm-0.3-7.2h-3.5v5.3h3.5q1.8 0 2.6-0.6 0.9-0.7 0.9-2 0-1.3-0.9-2-0.8-0.7-2.6-0.7zm-5.8 15.6v-17.5h6q2.7 0 4.2 1.1 1.5 1.1 1.5 3.2 0 1.6-0.8 2.6-0.7 0.9-2.2 1.2 1.8 0.3 2.7 1.5 1 1.2 1 3 0 2.3-1.6 3.6-1.6 1.3-4.5 1.3zm25-6.5l-3.2-8.7-3.2 8.7zm-11.2 6.5l6.6-17.5h2.7l6.7 17.5h-2.5l-1.6-4.5h-7.9l-1.6 4.5zm18.2 0v-17.5h11.1v2h-8.7v5.2h8.3v2h-8.3v6.3h8.9v2zm16 0v-17.5h3.5l4.5 11.9 4.5-11.9h3.5v17.5h-2.3v-15.4l-4.5 12h-2.4l-4.5-12v15.4zm27.1-15.9q-2.6 0-4.1 1.9-1.5 1.9-1.5 5.3 0 3.3 1.5 5.2 1.5 1.9 4.1 1.9 2.6 0 4.1-1.9 1.5-1.9 1.5-5.2 0-3.4-1.5-5.3-1.5-1.9-4.1-1.9zm0-1.9q3.7 0 5.9 2.5 2.2 2.4 2.2 6.6 0 4.1-2.2 6.6-2.2 2.4-5.9 2.4-3.7 0-5.9-2.4-2.2-2.5-2.2-6.6 0-4.2 2.2-6.6 2.2-2.5 5.9-2.5zm25 1.6v2.5q-1.2-1.1-2.6-1.6-1.3-0.6-2.8-0.6-3 0-4.6 1.9-1.6 1.8-1.6 5.3 0 3.4 1.6 5.3 1.6 1.8 4.6 1.8 1.5 0 2.8-0.6 1.4-0.5 2.6-1.6v2.4q-1.3 0.9-2.6 1.3-1.4 0.4-3 0.4-3.9 0-6.2-2.4-2.3-2.4-2.3-6.6 0-4.3 2.3-6.7 2.3-2.4 6.2-2.4 1.6 0 3 0.4 1.4 0.4 2.6 1.2zm1.5 0.7v-2h14.8v2h-6.2v15.5h-2.4v-15.5zm27.5-2h3.1v17.5h-2.3v-14.6l-7.7 14.6h-3.2v-17.5h2.3v14.6zm8.2 17.5v-2.9h2.4v2.9zm22.2-9.4q1.7 0.4 2.6 1.5 1 1.2 1 2.8 0 2.6-1.8 4.1-1.8 1.4-5 1.4-1.1 0-2.3-0.2-1.2-0.3-2.4-0.7v-2.3q1 0.6 2.1 0.9 1.2 0.3 2.5 0.3 2.2 0 3.4-0.9 1.2-0.9 1.2-2.6 0-1.5-1.1-2.4-1.1-0.8-3.1-0.8h-2v-2h2.1q1.8 0 2.7-0.7 0.9-0.7 0.9-2 0-1.3-0.9-2.1-1-0.7-2.8-0.7-0.9 0-2 0.2-1.2 0.2-2.5 0.7v-2.1q1.4-0.4 2.5-0.6 1.2-0.2 2.3-0.2 2.7 0 4.2 1.2 1.6 1.3 1.6 3.4 0 1.4-0.8 2.4-0.9 1-2.4 1.4zm6.4 3.8v-1.9h6.3v1.9zm10.5-3.1v-8.8h9.3v2h-7.2v4.3q0.5-0.2 1.1-0.2 0.5-0.1 1-0.1 2.9 0 4.6 1.6 1.7 1.6 1.7 4.3 0 2.8-1.7 4.4-1.8 1.6-5 1.6-1.1 0-2.2-0.2-1.2-0.2-2.4-0.6v-2.4q1.1 0.6 2.2 0.9 1.1 0.3 2.4 0.3 2 0 3.2-1.1 1.2-1.1 1.2-2.9 0-1.8-1.2-2.9-1.2-1-3.2-1-1 0-1.9 0.2-1 0.2-1.9 0.6zm21.4 8.7v-2q2.5-0.5 3.2-2.4 1-3.1 1-10.1v-3h10.5v17.5h-2.4v-15.5h-5.7v2.2q0 6.6-1.2 9.7-1.1 3-5.4 3.6zm19.3 0v-17.5h11.1v2h-8.7v5.2h8.3v2h-8.3v6.3h8.9v2zm12.6-15.5v-2h14.8v2h-6.2v15.5h-2.4v-15.5z"/><path class="a" d="m452.7 581h-2.3v-17.5h10.8v2h-8.5zm12.7 0v-17.5h11v2h-8.7v5.2h8.4v2h-8.4v6.3h8.9v2zm15 0v-17.5h2.4v7.2h8.6v-7.2h2.4v17.5h-2.4v-8.3h-8.6v8.3zm28.1-17.5h3.1v17.5h-2.3v-14.6l-7.7 14.6h-3.2v-17.5h2.3v14.6zm17 11.1l-3.2-8.7-3.2 8.7zm-11.3 6.4l6.7-17.5h2.7l6.7 17.5h-2.5l-1.6-4.5h-7.9l-1.6 4.5zm16.8 0v-2q2.6-0.5 3.3-2.4 1-3.1 1-10.1v-3h10.4v17.5h-2.3v-15.5h-5.7v2.2q0 6.6-1.2 9.7-1.2 3-5.5 3.6zm29.3-5.1q0-1.6-0.9-2.4-0.9-0.8-2.8-0.8h-3.8v6.4h3.8q1.9 0 2.8-0.8 0.9-0.8 0.9-2.4zm-9.9 5.1v-17.5h2.4v7.2h3.9q2.9 0 4.5 1.3 1.6 1.3 1.6 3.9 0 2.6-1.6 3.9-1.6 1.2-4.5 1.2zm17 0v-17.5h2.3v7.2h8.7v-7.2h2.3v17.5h-2.3v-8.3h-8.7v8.3zm28-5.1q0-1.6-1-2.4-0.9-0.8-2.8-0.8h-3.8v6.4h3.8q1.9 0 2.8-0.8 1-0.8 1-2.4zm-10 5.1v-17.5h2.4v7.2h3.9q3 0 4.6 1.3 1.6 1.3 1.6 3.9 0 2.6-1.6 3.9-1.6 1.2-4.6 1.2zm14.1 0v-17.5h2.4v17.5zm6.9 0v-17.5h11.1v2h-8.7v5.2h8.3v2h-8.3v6.3h8.9v2zm23-17.5h13.3v17.5h-2.4v-15.5h-8.6v15.5h-2.3zm25.1 1.6q-2.6 0-4.1 2-1.5 1.9-1.5 5.2 0 3.3 1.5 5.2 1.5 1.9 4.1 1.9 2.6 0 4.1-1.9 1.5-1.9 1.5-5.2 0-3.3-1.5-5.2-1.5-2-4.1-2zm0-1.9q3.7 0 5.9 2.5 2.2 2.4 2.2 6.6 0 4.1-2.2 6.6-2.2 2.5-5.9 2.5-3.7 0-5.9-2.5-2.2-2.5-2.2-6.6 0-4.2 2.2-6.6 2.2-2.5 5.9-2.5zm15 15.8h7.7v-13.5h-5.7v2.5q0 5.9-1.3 9.7-0.2 0.8-0.7 1.3zm-4.3 0h0.8q1.6-0.7 2-2.1 1.2-3.6 1.2-10.1v-3.3h10.4v15.5h2v5.8h-2v-3.8h-12.4v3.8h-2zm21.5 2h-2.3v-17.5h10.9v2h-8.6zm19.8-15.9q-2.6 0-4.1 1.9-1.5 1.9-1.5 5.2 0 3.4 1.5 5.3 1.5 1.9 4.1 1.9 2.6 0 4.1-1.9 1.5-1.9 1.5-5.3 0-3.3-1.5-5.2-1.5-1.9-4.1-1.9zm0-1.9q3.7 0 5.9 2.4 2.2 2.5 2.2 6.6 0 4.2-2.2 6.7-2.2 2.4-5.9 2.4-3.7 0-5.9-2.4-2.2-2.5-2.2-6.7 0-4.1 2.2-6.6 2.2-2.4 5.9-2.4zm9.4 2.3v-2h14.8v2h-6.2v15.5h-2.3v-15.5zm24.5-0.4q-2.6 0-4.1 1.9-1.5 1.9-1.5 5.2 0 3.4 1.5 5.3 1.5 1.9 4.1 1.9 2.6 0 4.1-1.9 1.5-1.9 1.5-5.3 0-3.3-1.5-5.2-1.5-1.9-4.1-1.9zm0-1.9q3.7 0 5.9 2.4 2.2 2.5 2.2 6.6 0 4.2-2.2 6.7-2.2 2.4-5.9 2.4-3.7 0-5.9-2.4-2.2-2.5-2.2-6.7 0-4.1 2.2-6.6 2.2-2.4 5.9-2.4zm18 9.4h-3.8v6.4h3.8q2 0 2.9-0.8 0.9-0.7 0.9-2.4 0-1.6-0.9-2.4-0.9-0.8-2.9-0.8zm-0.2-7.2h-3.6v5.3h3.6q1.7 0 2.5-0.6 0.9-0.7 0.9-2 0-1.4-0.9-2-0.8-0.7-2.5-0.7zm-5.9 15.6v-17.5h6q2.7 0 4.2 1.1 1.5 1.1 1.5 3.2 0 1.6-0.8 2.6-0.7 0.9-2.2 1.1 1.8 0.4 2.7 1.6 1 1.2 1 3 0 2.3-1.6 3.6-1.6 1.3-4.5 1.3zm26-17.5h3.2v17.5h-2.3v-14.7l-7.7 14.7h-3.2v-17.5h2.3v14.6zm19.6 0v15.5h6.9v-15.5h2.4v17.5h-21v-17.5h2.4v15.5h6.9v-15.5zm14.3 17.5v-17.5h2.4v8.7l8.5-8.7h3l-6.8 6.9 7.2 10.6h-2.6l-6.1-9-3.2 3.3v5.7zm27.1-17.5h3.1v17.5h-2.2v-14.6l-7.8 14.6h-3.2v-17.5h2.3v14.7zm8.2 17.5v-3h2.4v3zm15.1-8.8v-8.7h9.2v1.9h-7.1v4.3q0.5-0.1 1.1-0.2 0.5-0.1 1-0.1 2.9 0 4.6 1.6 1.7 1.6 1.7 4.3 0 2.9-1.7 4.4-1.8 1.6-5 1.6-1.1 0-2.2-0.2-1.2-0.2-2.4-0.6v-2.3q1.1 0.5 2.2 0.8 1.1 0.3 2.4 0.3 2 0 3.2-1.1 1.2-1 1.2-2.9 0-1.8-1.2-2.9-1.2-1-3.2-1-1 0-1.9 0.2-1 0.2-1.9 0.6zm13.5 3.1v-1.9h6.4v1.9zm9.8-9.9v-1.9h11.2v1l-6.4 16.5h-2.4l6-15.6zm22 15.6v-2q2.5-0.6 3.2-2.5 1.1-3 1.1-10.1v-2.9h10.4v17.5h-2.4v-15.6h-5.7v2.2q0 6.6-1.2 9.7-1.1 3-5.4 3.7zm19.3 0v-17.5h11.1v1.9h-8.7v5.2h8.3v2h-8.3v6.4h8.9v2zm12.6-15.6v-1.9h14.8v1.9h-6.2v15.6h-2.4v-15.6z"/><path class="a" d="m453.5 617h7.7v-13.5h-5.7v2.5q0 5.8-1.3 9.7-0.3 0.8-0.7 1.3zm-4.3 0h0.8q1.6-0.7 2-2.1 1.2-3.6 1.2-10.1v-3.3h10.4v15.5h2v5.8h-2v-3.8h-12.4v3.8h-2zm26.3-6.4h-3.8v6.4h3.8q1.9 0 2.8-0.8 1-0.8 1-2.4 0-1.6-1-2.4-0.9-0.8-2.8-0.8zm-0.3-7.2h-3.5v5.3h3.5q1.8 0 2.6-0.7 0.9-0.6 0.9-2 0-1.3-0.9-1.9-0.8-0.7-2.6-0.7zm-5.8 15.6v-17.5h6q2.7 0 4.2 1.1 1.4 1.1 1.4 3.2 0 1.6-0.7 2.5-0.8 1-2.2 1.2 1.7 0.4 2.7 1.6 1 1.2 1 3 0 2.3-1.6 3.6-1.6 1.3-4.6 1.3zm25.1-6.5l-3.2-8.7-3.2 8.7zm-11.3 6.5l6.7-17.5h2.7l6.7 17.5h-2.5l-1.6-4.5h-7.9l-1.6 4.5zm28.6-8.9v-8.6h2.4v8.6l7.9-8.6h2.9l-6.4 6.9 6.8 10.6h-2.4l-5.8-9.1-3 3.3v5.8h-2.4v-5.8l-3-3.3-5.8 9.1h-2.5l6.8-10.6-6.4-6.9h2.9zm18.7 6.8h7.8v-13.5h-5.7v2.5q0 5.8-1.3 9.7-0.3 0.8-0.8 1.3zm-4.3 0h0.9q1.5-0.7 2-2.1 1.1-3.6 1.1-10.1v-3.3h10.4v15.5h2v5.8h-2v-3.8h-12.4v3.8h-2zm30.1-3.2q0-1.6-0.9-2.4-0.9-0.8-2.8-0.8h-3.8v6.4h3.8q1.9 0 2.8-0.8 0.9-0.8 0.9-2.4zm-9.9 5.2v-17.5h2.4v7.2h3.9q2.9 0 4.5 1.2 1.6 1.3 1.6 3.9 0 2.6-1.6 3.9-1.6 1.3-4.5 1.3zm14.1 0v-17.5h2.4v17.5zm14.9 0v-17.5h3.5l4.4 11.9 4.5-11.9h3.6v17.5h-2.3v-15.4l-4.6 12h-2.3l-4.5-12v15.4zm30-6.5l-3.2-8.7-3.2 8.7zm-11.2 6.5l6.6-17.5h2.7l6.7 17.5h-2.5l-1.6-4.5h-7.9l-1.6 4.5zm15.8-15.5v-2h14.8v2h-6.2v15.5h-2.4v-15.5zm17.4 15.5v-17.5h11.1v2h-8.7v5.1h8.3v2h-8.3v6.4h8.9v2zm15 0v-17.5h3.5l4.5 11.9 4.5-11.9h3.5v17.5h-2.3v-15.4l-4.5 12h-2.4l-4.5-12v15.4zm30.1-6.5l-3.3-8.7-3.2 8.7zm-11.2 6.5l6.7-17.5h2.7l6.6 17.5h-2.4l-1.6-4.5h-7.9l-1.6 4.5zm15.7-15.5v-2h14.8v2h-6.2v15.5h-2.4v-15.5zm27.5-2h3.2v17.5h-2.3v-14.7l-7.7 14.7h-3.2v-17.5h2.3v14.6zm7.9 17.5v-17.5h2.4v8.6l8.4-8.6h3.1l-6.8 6.9 7.1 10.6h-2.6l-6-9-3.2 3.3v5.7zm17.2 0v-3h2.5v3zm14.4-15.5v-2h11.2v1l-6.3 16.5h-2.5l6-15.5zm14.2 9.9v-1.9h6.3v1.9zm10.8 5.6v-2h3.9v-13.3l-4.2 0.8v-2.2l4.1-0.8h2.4v15.5h3.9v2zm15 0v-2h3.8v-13.3l-4.2 0.8v-2.2l4.2-0.8h2.4v15.5h3.8v2zm21.1 0v-2q2.5-0.5 3.2-2.5 1-3 1-10v-3h10.5v17.5h-2.4v-15.5h-5.7v2.1q0 6.7-1.2 9.8-1.1 2.9-5.4 3.6zm19.3 0v-17.5h11.1v2h-8.7v5.2h8.3v2h-8.3v6.3h8.9v2zm12.6-15.5v-2h14.8v2h-6.2v15.5h-2.4v-15.5z"/><path fill-rule="evenodd" class="h" d="m410.2 538.6l0.1-14.1 7 4.2 2.8 0.1 7-4.2v14l-7.1 4.2h-2.8z"/><path fill-rule="evenodd" class="h" d="m410.2 577l0.1-14.1 7 4.3h2.8l7-4.2v14.1l-7.1 4.2h-2.8z"/><path fill-rule="evenodd" class="h" d="m410.2 614.8l0.1-14 7 4.2h2.8l7-4.2v14.1l-7.1 4.2h-2.8z"/><path class="i" d="m250.2 631.2h2v-10.4h-1.7l-2.5 1.2 0.3 1.5 1.9-0.9zm29.2-10.6q-0.2 0-0.4 0-0.3 0-0.6 0-1.1 0.1-2 0.5-1 0.4-1.7 1-0.6 0.6-1 1.3-0.4 0.7-0.6 1.5-0.2 0.9-0.2 1.9 0 1 0.2 1.8 0.3 0.8 0.8 1.5 0.5 0.6 1.2 0.9 0.8 0.3 1.7 0.3 0.8 0 1.5-0.3 0.7-0.3 1.2-0.8 0.5-0.5 0.7-1.2 0.3-0.6 0.3-1.4 0-0.8-0.2-1.4-0.3-0.7-0.7-1.1-0.5-0.4-1-0.7-0.6-0.2-1.3-0.2-0.5 0-1 0.1-0.4 0.2-0.7 0.4-0.4 0.2-0.6 0.5h-0.1q0.1-0.5 0.4-1 0.2-0.6 0.6-1 0.5-0.4 1.1-0.7 0.6-0.2 1.4-0.3 0.3-0.1 0.6-0.1 0.2 0 0.4 0zm-2.6 9.3q-0.5 0-0.8-0.2-0.4-0.2-0.6-0.5-0.3-0.4-0.4-0.8-0.1-0.5-0.2-1 0-0.2 0.1-0.4 0-0.1 0.1-0.2 0.1-0.3 0.4-0.6 0.2-0.2 0.6-0.4 0.3-0.1 0.7-0.1 0.6 0 1 0.3 0.4 0.2 0.6 0.7 0.2 0.5 0.2 1.1 0 0.6-0.2 1.1-0.2 0.5-0.6 0.7-0.4 0.3-0.9 0.3zm-11.2-4.1q-0.6 0.3-1 0.7-0.5 0.3-0.7 0.9-0.2 0.5-0.2 1.1 0 0.6 0.2 1.1 0.2 0.5 0.7 0.9 0.5 0.4 1.2 0.7 0.7 0.2 1.6 0.2 0.8 0 1.5-0.2 0.7-0.3 1.2-0.7 0.5-0.4 0.8-1 0.3-0.5 0.3-1.2 0-0.7-0.3-1.2-0.2-0.5-0.7-0.9-0.4-0.3-1-0.6 0.6-0.3 0.9-0.7 0.4-0.4 0.5-0.8 0.2-0.4 0.2-0.9 0-0.5-0.2-0.9-0.2-0.5-0.6-0.9-0.4-0.4-1-0.6-0.6-0.2-1.5-0.2-0.7 0-1.4 0.2-0.6 0.2-1.1 0.6-0.4 0.4-0.7 0.9-0.3 0.5-0.3 1.2 0 0.4 0.2 0.8 0.2 0.5 0.5 0.8 0.4 0.4 0.9 0.7zm1.8 4.2q-0.5-0.1-0.9-0.3-0.4-0.2-0.6-0.6-0.2-0.4-0.2-0.8 0-0.5 0.2-0.8 0.2-0.4 0.5-0.7 0.3-0.2 0.8-0.4 0.6 0.2 1.1 0.4 0.4 0.3 0.6 0.7 0.3 0.4 0.3 0.9 0 0.4-0.2 0.8-0.3 0.4-0.6 0.6-0.4 0.2-1 0.2zm0-8.1q0.4 0 0.7 0.1 0.3 0.2 0.5 0.4 0.2 0.2 0.2 0.5 0.1 0.2 0.1 0.5 0 0.4-0.2 0.7-0.1 0.3-0.4 0.5-0.3 0.3-0.7 0.4-0.5-0.2-0.9-0.4-0.4-0.2-0.6-0.5-0.2-0.3-0.2-0.8 0-0.4 0.2-0.7 0.2-0.3 0.5-0.5 0.3-0.2 0.8-0.2zm-12 9.4q0.2 0.1 0.5 0 0.3 0 0.7 0 1-0.1 1.9-0.4 1-0.4 1.6-1 0.6-0.5 1-1.3 0.4-0.7 0.6-1.6 0.3-0.9 0.3-2 0-1-0.3-1.8-0.2-0.8-0.7-1.4-0.5-0.6-1.2-0.9-0.7-0.4-1.6-0.4-0.8 0-1.5 0.3-0.7 0.3-1.2 0.9-0.5 0.5-0.8 1.1-0.2 0.7-0.2 1.5 0 0.7 0.2 1.3 0.2 0.6 0.7 1 0.4 0.4 1 0.7 0.5 0.2 1.2 0.2 0.8 0 1.3-0.2 0.6-0.3 1-0.7-0.1 0.7-0.4 1.3-0.4 0.6-0.9 1-0.4 0.4-1 0.6-0.5 0.2-1.1 0.2-0.4 0.1-0.6 0.1-0.3 0-0.5 0zm2.7-9.4q0.5 0 0.9 0.2 0.3 0.2 0.5 0.6 0.2 0.4 0.3 0.8 0.2 0.5 0.1 1.1 0 0.2 0 0.3 0 0.1-0.1 0.2-0.1 0.3-0.4 0.5-0.2 0.2-0.5 0.3-0.3 0.1-0.8 0.1-0.5 0-0.9-0.3-0.4-0.2-0.6-0.6-0.2-0.5-0.2-1 0-0.7 0.2-1.1 0.3-0.5 0.6-0.8 0.4-0.3 0.9-0.3z"/></g></svg>